<?xml version="1.0" encoding="utf-8"?>
<!-- Generator: Adobe Illustrator 16.0.0, SVG Export Plug-In . SVG Version: 6.00 Build 0)  -->
<!DOCTYPE svg PUBLIC "-//W3C//DTD SVG 1.1//EN" "http://www.w3.org/Graphics/SVG/1.1/DTD/svg11.dtd">
<svg version="1.1" id="Layer_1" xmlns="http://www.w3.org/2000/svg" xmlns:xlink="http://www.w3.org/1999/xlink" x="0px" y="0px"
	 width="188px" height="188px" viewBox="0 0 188 188" enable-background="new 0 0 188 188" xml:space="preserve">
<g>
	<g>
		<g>
			<g>
				<g>
					<polygon fill="#FFFFFF" points="125.375,98.38 134.945,92.853 134.945,85.138 125.375,90.665 					"/>
					<path fill="#3C3C3C" d="M126.074,99.593l-2.1-1.213v-7.715l0.7-1.213l9.57-5.527l2.101,1.213v7.715l-0.701,1.213
						L126.074,99.593z M126.775,91.474v4.48l6.77-3.91v-4.48L126.775,91.474z"/>
				</g>
				<g>
					<polygon fill="#FFFFFF" points="118.471,94.388 125.375,98.372 125.375,90.661 118.471,86.675 					"/>
					<path fill="#3C3C3C" d="M124.676,99.585l-6.904-3.983l-0.701-1.213v-7.713l2.101-1.213l6.904,3.986l0.7,1.213v7.711
						L124.676,99.585z M119.871,93.579l4.104,2.369V91.47l-4.104-2.369V93.579z"/>
				</g>
				<g>
					<line fill="none" x1="134.945" y1="85.142" x2="128.041" y2="81.155"/>
					
						<rect x="127.507" y="81.745" transform="matrix(-0.866 -0.5 0.5 -0.866 203.7923 220.898)" fill="#3C3C3C" width="7.971" height="2.8"/>
				</g>
				<g>
					<polygon fill="#FFFFFF" points="128.084,81.153 134.945,85.114 125.375,90.64 118.514,86.679 					"/>
					<path fill="#3C3C3C" d="M125.375,92.257l-9.662-5.578l12.371-7.143l9.662,5.578L125.375,92.257z M121.314,86.679l4.061,2.344
						l6.77-3.908l-4.061-2.344L121.314,86.679z"/>
				</g>
			</g>
			<g>
				<g>
					<polygon fill="#FFFFFF" points="51.979,56.271 61.551,50.743 61.551,43.03 51.979,48.556 					"/>
					<path fill="#3C3C3C" d="M52.678,57.483l-2.1-1.213v-7.715l0.701-1.213l9.572-5.525l2.1,1.213v7.713l-0.701,1.213L52.678,57.483
						z M53.379,49.364v4.479l6.771-3.91v-4.48L53.379,49.364z"/>
				</g>
				<g>
					<polygon fill="#FFFFFF" points="47.277,53.507 51.979,56.267 51.979,48.552 47.277,45.792 					"/>
					<path fill="#3C3C3C" d="M51.27,57.474l-4.701-2.76l-0.691-1.207v-7.715l2.109-1.207l4.701,2.76l0.691,1.207v7.715L51.27,57.474
						z M48.678,52.706l1.9,1.115v-4.469l-1.9-1.115V52.706z"/>
				</g>
			</g>
			<g>
				<g>
					<path fill="#FFFFFF" d="M28.396,57.091v64.953l58.143-33.568V23.521L28.396,57.091z M78.158,77.825l-45.742,26.032V59.38
						l45.742-26.033V77.825z"/>
					<path fill="#3C3C3C" d="M26.996,124.471V56.282l60.943-35.188v68.189L26.996,124.471z M29.797,57.899v61.719l55.342-31.951
						V25.946L29.797,57.899z M31.016,106.268V58.565l48.543-27.627V78.64L31.016,106.268z M33.816,60.194v41.256l42.941-24.439
						V35.755L33.816,60.194z"/>
				</g>
				<g>
					<g>
						<polygon fill="#FFFFFF" points="88.451,100.411 54.465,120.034 97.666,145.05 131.654,125.427 						"/>
						<path fill="#3C3C3C" d="M97.664,146.667l-45.996-26.635l36.785-21.238l45.998,26.636L97.664,146.667z M57.262,120.036
							l40.406,23.396l31.189-18.008l-40.408-23.396L57.262,120.036z"/>
					</g>
					<rect x="96.266" y="141.05" fill="#3C3C3C" width="2.801" height="3.423"/>
				</g>
				<g>
					<path fill="#FFFFFF" d="M101.832,99.484v64.957l58.143-33.567V65.917L101.832,99.484z M152.836,120.559l-42.986,25.698v-44.479
						l42.986-23.698V120.559z"/>
					<path fill="#3C3C3C" d="M100.432,166.868V98.677l60.943-35.186v68.19L100.432,166.868z M103.232,100.294v61.724l55.342-31.951
						V68.343L103.232,100.294z M108.449,148.727v-47.773l45.787-25.244v45.645L108.449,148.727z M111.25,102.604v41.185
						l40.186-24.024V80.45L111.25,102.604z"/>
				</g>
				<rect x="85.131" y="28.329" fill="#3C3C3C" width="2.801" height="57.42"/>
				
					<rect x="56.06" y="6.672" transform="matrix(-0.4994 -0.8664 0.8664 -0.4994 51.2925 110.1141)" fill="#3C3C3C" width="2.799" height="67.133"/>
				
					<rect x="106.926" y="111.058" transform="matrix(-0.8603 -0.5098 0.5098 -0.8603 180.5534 274.3957)" fill="#3C3C3C" width="41.897" height="2.799"/>
				<g>
					<path fill="#FFFFFF" d="M86.17,23.433L28.389,56.792l73.443,42.526l57.779-33.356L86.17,23.433z M102.133,89.905L42.471,55.657
						L86.539,30.81l59.662,34.25L102.133,89.905z"/>
					<path fill="#3C3C3C" d="M101.83,100.938l-0.699-0.406L25.592,56.79l60.58-34.975l0.699,0.406l75.537,43.742L101.83,100.938z
						 M31.186,56.794l70.648,40.908l54.98-31.742L86.168,25.05L31.186,56.794z M102.127,91.517L39.639,55.646l46.906-26.447
						l62.488,35.873L102.127,91.517z M45.303,55.669l56.835,32.625l41.23-23.246L86.533,32.421L45.303,55.669z"/>
				</g>
				<g>
					<path fill="#FFFFFF" d="M28.389,56.993v64.957l73.443,42.526V99.521L28.389,56.993z M95.32,136.12l-14.816-8.72l-13.473,4.484
						l-31.934-18.377v-43.97l60.223,34.873V136.12z"/>
					<path fill="#3C3C3C" d="M103.232,166.904l-76.245-44.147V54.565l76.245,44.148V166.904z M29.789,121.145l70.643,40.905v-61.723
						L29.789,59.421V121.145z M96.721,138.566l-16.379-9.637l-13.465,4.482l-33.18-19.094V67.11l63.024,36.494V138.566
						L96.721,138.566z M80.666,125.872l13.254,7.799v-28.453L36.498,71.966v40.732l30.688,17.659L80.666,125.872z"/>
				</g>
				<polygon fill="#3C3C3C" points="94.959,152.337 78.121,142.489 78.121,133.764 94.959,143.609 				"/>
			</g>
			<g>
				<line fill="none" x1="114.219" y1="83.421" x2="52.945" y2="47.935"/>
				
					<rect x="48.178" y="63.684" transform="matrix(-0.8654 -0.5012 0.5012 -0.8654 122.9948 164.4129)" fill="#3C3C3C" width="70.812" height="3.999"/>
			</g>
			<g>
				<line fill="none" x1="122.809" y1="78.433" x2="61.535" y2="42.946"/>
				
					<rect x="56.769" y="58.696" transform="matrix(-0.8653 -0.5012 0.5012 -0.8653 141.5175 159.4139)" fill="#3C3C3C" width="70.812" height="3.999"/>
			</g>
			<g>
				<g>
					<polygon fill="#FFFFFF" points="95.662,76.179 108.602,68.706 108.602,58.276 95.662,65.749 					"/>
					<path fill="#3C3C3C" d="M96.361,77.392l-2.1-1.213v-10.43l0.701-1.213l12.938-7.473l2.101,1.213v10.43l-0.701,1.213
						L96.361,77.392z M97.062,66.558v7.195l10.139-5.855v-7.195L97.062,66.558z"/>
				</g>
				<g>
					<polygon fill="#FFFFFF" points="86.326,70.782 95.662,76.173 95.662,65.741 86.326,60.351 					"/>
					<path fill="#3C3C3C" d="M94.963,77.386l-9.336-5.391l-0.701-1.213V60.351l2.1-1.213l9.335,5.391l0.701,1.213v10.432
						L94.963,77.386z M87.727,69.974l6.535,3.773V66.55l-6.535-3.773V69.974z"/>
				</g>
				<g>
					<line fill="none" x1="108.602" y1="58.282" x2="99.266" y2="52.892"/>
					
						<rect x="98.544" y="54.183" transform="matrix(-0.866 -0.5 0.5 -0.866 166.1529 155.6863)" fill="#3C3C3C" width="10.78" height="2.8"/>
				</g>
				<g>
					<polygon fill="#FFFFFF" points="99.324,52.888 108.602,58.245 95.662,65.716 86.385,60.36 					"/>
					<path fill="#3C3C3C" d="M94.963,66.929l-9.277-5.355v-2.426l12.939-7.473h1.398l9.276,5.357v2.426l-12.938,7.471H94.963z
						 M89.186,60.36l6.477,3.738l10.142-5.854l-6.479-3.74L89.186,60.36z"/>
				</g>
			</g>
		</g>
		<g>
			<path fill="#3C3C3C" d="M110.744,31.103c2.391,1.715,3.285,6.004,3.537,8.609l3.311,1.916c0.064-0.18,0.1-0.371,0.098-0.572
				c-0.004-0.373-0.149-9.168-5.002-12.652c-2.153-1.545-4.799-1.82-7.862-0.824c-5.404,1.762-8.541,7.834-9.318,18.051
				c-0.551,7.23,0.304,13.885,0.339,14.164c0.108,0.838,0.823,1.447,1.647,1.447c0.069,0,0.144-0.004,0.217-0.014
				c0.91-0.117,1.552-0.953,1.435-1.863c-0.92-7.053-1.504-25.945,6.713-28.623C107.881,30.081,109.482,30.198,110.744,31.103z"/>
			<path fill="#3C3C3C" d="M97.492,62.642c-1.533,0-2.838-1.146-3.037-2.666c-0.094-0.744-0.887-7.35-0.346-14.451
				c0.825-10.836,4.284-17.322,10.282-19.277c3.489-1.133,6.606-0.779,9.112,1.018c5.328,3.828,5.574,12.77,5.586,13.777
				c0.004,0.359-0.057,0.717-0.18,1.059l-0.566,1.58l-5.387-3.117l-0.067-0.717c-0.275-2.848-1.199-6.342-2.962-7.607
				c-0.891-0.637-2.062-0.682-3.639-0.166c-6.736,2.195-6.789,19.213-5.759,27.109c0.216,1.68-0.971,3.219-2.643,3.434
				C97.756,62.634,97.621,62.642,97.492,62.642z M108.229,28.394c-0.916,0-1.916,0.174-2.971,0.518
				c-4.814,1.568-7.625,7.23-8.355,16.824c-0.521,6.828,0.24,13.174,0.33,13.875c0.021,0.15,0.148,0.23,0.261,0.23l0.032-0.002
				c0.127-0.016,0.244-0.174,0.229-0.295c-0.032-0.264-3.33-26.549,7.668-30.135c2.464-0.803,4.519-0.604,6.14,0.555
				c2.783,1.998,3.723,6.453,4.033,8.891l0.547,0.316c-0.304-2.711-1.269-7.473-4.271-9.631
				C110.795,28.769,109.604,28.394,108.229,28.394z"/>
		</g>
	</g>
	<path fill="#3C3C3C" d="M98.902,166.204l-72.641-42.001l0.52-1.203H26V56.993l0.903-0.688l-0.204-1.23l18.196-10.902l0.284,0.482
		l0.479-0.471l-0.048-0.082l0.444-0.305l0.08,0.006l38.891-22.109l1.053,0.246l0.422-0.332l0.203,0.062l-0.119,0.389l0.201,0.047
		l0.113-0.201l0.773,0.408l-0.016,0.021l11.371,6.441c1.408-1.367,3.193-2.439,5.172-3.086c3.646-1.186,6.982-0.797,9.646,1.115
		c3.982,2.859,5.244,8.414,5.645,11.719l42.849,25.046L161.576,65H162v65.874l-1.066,1.746l-60.022,33.567l-0.493-0.862
		L98.902,166.204z M30,121.227l69.992,40.93L158,129.702V65.503l-39.585-23.002l-0.702,0.738c-2.043-0.045-2.087-1.82-2.14-3.457
		l0.021-0.018c-0.225-2.438-1.057-7.539-4.078-9.709c-1.637-1.176-3.625-1.359-6.076-0.561c-1.811,0.59-3.371,1.662-4.396,3.02
		l-2.584,0.537l-12.684-7.184l-38.19,21.712L46.655,47.8L30,57.802V121.227z"/>
	<rect x="100" y="99" fill="#3C3C3C" width="4" height="62"/>
	
		<rect x="128.897" y="49.134" transform="matrix(-0.4999 -0.8661 0.8661 -0.4999 124.6999 237.4151)" fill="#3C3C3C" width="4.001" height="67.138"/>
	
		<rect x="22.713" y="76.287" transform="matrix(-0.866 -0.5 0.5 -0.866 82.3494 178.6399)" fill="#3C3C3C" width="84.792" height="4.001"/>
</g>
</svg>
