<?xml version="1.0" encoding="utf-8"?>
<!-- Generator: Adobe Illustrator 16.0.0, SVG Export Plug-In . SVG Version: 6.00 Build 0)  -->
<!DOCTYPE svg PUBLIC "-//W3C//DTD SVG 1.1//EN" "http://www.w3.org/Graphics/SVG/1.1/DTD/svg11.dtd">
<svg version="1.1" id="Layer_1" xmlns="http://www.w3.org/2000/svg" xmlns:xlink="http://www.w3.org/1999/xlink" x="0px" y="0px"
	 width="188px" height="188px" viewBox="0 0 188 188" enable-background="new 0 0 188 188" xml:space="preserve">
<g>
	<g>
		<path fill="#3C3C3C" d="M140.723,119.664c-0.17,0-0.34-0.043-0.496-0.131l-11.242-6.424c-0.48-0.275-0.646-0.887-0.373-1.365
			c0.275-0.482,0.889-0.643,1.365-0.373l11.242,6.424c0.48,0.275,0.646,0.887,0.373,1.365
			C141.406,119.482,141.068,119.664,140.723,119.664z"/>
		<path fill="#3C3C3C" d="M149.541,96.494c-0.049,0-0.096-0.004-0.145-0.01l-12.816-1.842c-0.547-0.078-0.926-0.586-0.848-1.133
			c0.078-0.549,0.582-0.912,1.133-0.848l12.816,1.842c0.547,0.078,0.926,0.586,0.848,1.133
			C150.457,96.135,150.029,96.494,149.541,96.494z"/>
		<path fill="#3C3C3C" d="M136.727,74.047c-0.486,0-0.912-0.355-0.986-0.852c-0.082-0.547,0.295-1.057,0.84-1.137l12.805-1.912
			c0.543-0.08,1.055,0.293,1.137,0.84s-0.295,1.057-0.84,1.137l-12.805,1.912C136.826,74.043,136.775,74.047,136.727,74.047z"/>
		<path fill="#3C3C3C" d="M132.641,55.33c-0.352,0-0.695-0.188-0.877-0.518c-0.266-0.484-0.088-1.094,0.395-1.359l11.346-6.234
			c0.484-0.264,1.094-0.09,1.359,0.395s0.088,1.094-0.395,1.359l-11.346,6.234C132.969,55.291,132.805,55.33,132.641,55.33z"/>
		<path fill="#3C3C3C" d="M119.676,42.699c-0.229,0-0.459-0.078-0.646-0.236c-0.422-0.357-0.473-0.988-0.117-1.41l8.367-9.881
			c0.361-0.42,0.99-0.471,1.41-0.117c0.422,0.357,0.473,0.988,0.117,1.41l-8.367,9.881C120.24,42.578,119.959,42.699,119.676,42.699
			z"/>
		<path fill="#3C3C3C" d="M102.701,37.527c-0.096,0-0.193-0.014-0.291-0.043c-0.529-0.162-0.826-0.721-0.666-1.248l3.771-12.385
			c0.16-0.527,0.715-0.822,1.248-0.666c0.529,0.162,0.826,0.721,0.666,1.248l-3.771,12.385
			C103.527,37.25,103.131,37.527,102.701,37.527z"/>
		<path fill="#3C3C3C" d="M149.541,96.494c-0.049,0-0.096-0.004-0.145-0.01l-12.816-1.842c-0.547-0.078-0.926-0.586-0.848-1.133
			c0.078-0.549,0.582-0.912,1.133-0.848l12.816,1.842c0.547,0.078,0.926,0.586,0.848,1.133
			C150.457,96.135,150.029,96.494,149.541,96.494z"/>
		<path fill="#3C3C3C" d="M136.727,74.047c-0.486,0-0.912-0.355-0.986-0.852c-0.082-0.547,0.295-1.057,0.84-1.137l12.805-1.912
			c0.543-0.08,1.055,0.293,1.137,0.84s-0.295,1.057-0.84,1.137l-12.805,1.912C136.826,74.043,136.775,74.047,136.727,74.047z"/>
		<path fill="#3C3C3C" d="M132.641,55.33c-0.352,0-0.695-0.188-0.877-0.518c-0.266-0.484-0.088-1.094,0.395-1.359l11.346-6.234
			c0.484-0.264,1.094-0.09,1.359,0.395s0.088,1.094-0.395,1.359l-11.346,6.234C132.969,55.291,132.805,55.33,132.641,55.33z"/>
		<path fill="#3C3C3C" d="M119.676,42.699c-0.229,0-0.459-0.078-0.646-0.236c-0.422-0.357-0.473-0.988-0.117-1.41l8.367-9.881
			c0.361-0.42,0.99-0.471,1.41-0.117c0.422,0.357,0.473,0.988,0.117,1.41l-8.367,9.881C120.24,42.578,119.959,42.699,119.676,42.699
			z"/>
		<path fill="#3C3C3C" d="M102.701,37.527c-0.096,0-0.193-0.014-0.291-0.043c-0.529-0.162-0.826-0.721-0.666-1.248l3.771-12.385
			c0.16-0.527,0.715-0.822,1.248-0.666c0.529,0.162,0.826,0.721,0.666,1.248l-3.771,12.385
			C103.527,37.25,103.131,37.527,102.701,37.527z"/>
		<path fill="#3C3C3C" d="M47.277,119.664c-0.346,0-0.684-0.182-0.869-0.504c-0.273-0.479-0.107-1.09,0.373-1.365l11.242-6.424
			c0.471-0.27,1.088-0.109,1.365,0.373c0.273,0.479,0.107,1.09-0.373,1.365l-11.242,6.424
			C47.617,119.621,47.447,119.664,47.277,119.664z"/>
		<path fill="#3C3C3C" d="M38.459,96.494c-0.488,0-0.916-0.359-0.988-0.857c-0.078-0.547,0.301-1.055,0.848-1.133l12.816-1.842
			c0.531-0.064,1.053,0.299,1.133,0.848c0.078,0.547-0.301,1.055-0.848,1.133l-12.816,1.842
			C38.555,96.49,38.508,96.494,38.459,96.494z"/>
		<path fill="#3C3C3C" d="M51.273,74.047c-0.051,0-0.1-0.004-0.15-0.012l-12.805-1.912c-0.545-0.08-0.922-0.59-0.84-1.137
			c0.082-0.549,0.596-0.93,1.137-0.84l12.805,1.912c0.545,0.08,0.922,0.59,0.84,1.137C52.186,73.691,51.76,74.047,51.273,74.047z"/>
		<path fill="#3C3C3C" d="M55.359,55.33c-0.164,0-0.328-0.039-0.482-0.123l-11.344-6.234c-0.482-0.266-0.66-0.875-0.395-1.359
			c0.27-0.484,0.873-0.658,1.359-0.395l11.344,6.234c0.482,0.266,0.66,0.875,0.395,1.359C56.053,55.143,55.711,55.33,55.359,55.33z"
			/>
		<path fill="#3C3C3C" d="M68.324,42.699c-0.283,0-0.564-0.121-0.764-0.354l-8.367-9.881c-0.355-0.422-0.305-1.053,0.117-1.41
			c0.42-0.354,1.051-0.303,1.41,0.117l8.367,9.881c0.355,0.422,0.305,1.053-0.117,1.41C68.783,42.621,68.553,42.699,68.324,42.699z"
			/>
		<path fill="#3C3C3C" d="M85.299,37.527c-0.43,0-0.826-0.277-0.957-0.709L80.57,24.434c-0.16-0.527,0.137-1.086,0.666-1.248
			c0.535-0.158,1.088,0.139,1.248,0.666l3.771,12.385c0.16,0.527-0.137,1.086-0.666,1.248
			C85.492,37.514,85.395,37.527,85.299,37.527z"/>
		<path fill="#3C3C3C" d="M38.459,96.494c-0.488,0-0.916-0.359-0.988-0.857c-0.078-0.547,0.301-1.055,0.848-1.133l12.816-1.842
			c0.531-0.064,1.053,0.299,1.133,0.848c0.078,0.547-0.301,1.055-0.848,1.133l-12.816,1.842
			C38.555,96.49,38.508,96.494,38.459,96.494z"/>
		<path fill="#3C3C3C" d="M51.273,74.047c-0.051,0-0.1-0.004-0.15-0.012l-12.805-1.912c-0.545-0.08-0.922-0.59-0.84-1.137
			c0.082-0.549,0.596-0.93,1.137-0.84l12.805,1.912c0.545,0.08,0.922,0.59,0.84,1.137C52.186,73.691,51.76,74.047,51.273,74.047z"/>
		<path fill="#3C3C3C" d="M55.359,55.33c-0.164,0-0.328-0.039-0.482-0.123l-11.344-6.234c-0.482-0.266-0.66-0.875-0.395-1.359
			c0.27-0.484,0.873-0.658,1.359-0.395l11.344,6.234c0.482,0.266,0.66,0.875,0.395,1.359C56.053,55.143,55.711,55.33,55.359,55.33z"
			/>
		<path fill="#3C3C3C" d="M68.324,42.699c-0.283,0-0.564-0.121-0.764-0.354l-8.367-9.881c-0.355-0.422-0.305-1.053,0.117-1.41
			c0.42-0.354,1.051-0.303,1.41,0.117l8.367,9.881c0.355,0.422,0.305,1.053-0.117,1.41C68.783,42.621,68.553,42.699,68.324,42.699z"
			/>
		<path fill="#3C3C3C" d="M85.299,37.527c-0.43,0-0.826-0.277-0.957-0.709L80.57,24.434c-0.16-0.527,0.137-1.086,0.666-1.248
			c0.535-0.158,1.088,0.139,1.248,0.666l3.771,12.385c0.16,0.527-0.137,1.086-0.666,1.248
			C85.492,37.514,85.395,37.527,85.299,37.527z"/>
	</g>
	<g>
		<path fill="#3C3C3C" d="M94.117,142.543c-5.059,0-9.828-1.145-13.428-3.223c-3.67-2.121-5.691-4.959-5.691-7.992
			c0-3.008,1.992-5.814,5.609-7.902c3.549-2.047,8.264-3.176,13.275-3.176c5.059,0,9.828,1.145,13.428,3.223
			c3.67,2.121,5.691,4.959,5.691,7.992c0,3.008-1.992,5.814-5.609,7.902C103.848,141.414,99.133,142.543,94.117,142.543z
			 M93.883,123.852c-4.391,0-8.465,0.955-11.475,2.691c-2.457,1.418-3.809,3.117-3.809,4.785c0,1.693,1.381,3.426,3.891,4.875
			c3.061,1.766,7.189,2.738,11.627,2.738c4.393,0,8.469-0.955,11.475-2.691c2.457-1.418,3.809-3.117,3.809-4.785
			c0-1.67-1.418-3.445-3.891-4.875C102.449,124.824,98.32,123.852,93.883,123.852z"/>
		<path fill="#3C3C3C" d="M78.174,152.434c-3.102-2.293-4.793-5.25-4.76-8.324l4,0.043c-0.02,1.756,1.096,3.555,3.139,5.062
			L78.174,152.434z"/>
		<path fill="#3C3C3C" d="M94.115,156.818c-5.072,0-10.152-1.145-14.117-3.434c-0.617-0.355-1.186-0.729-1.707-1.115l2.145-2.891
			c0.416,0.309,0.871,0.604,1.363,0.889c6.771,3.908,17.756,3.932,24.484,0.047c0.449-0.26,0.867-0.529,1.252-0.811l2.125,2.906
			c-0.486,0.355-1.01,0.695-1.576,1.021C104.174,155.689,99.148,156.818,94.115,156.818z"/>
		<path fill="#3C3C3C" d="M109.773,152.576l-2.352-3.238c2.061-1.494,3.186-3.291,3.166-5.059l4-0.043
			C114.621,147.336,112.91,150.297,109.773,152.576z"/>
		<rect x="110.588" y="132.184" fill="#3C3C3C" width="4" height="13.23"/>
		<rect x="73.414" y="132.629" fill="#3C3C3C" width="4" height="12.656"/>
	</g>
	<path fill="#3C3C3C" d="M73.506,133.158c-0.518-1.625-0.779-3.43-0.779-5.363c0-9.445-3.334-15.578-6.865-22.07
		c-3.908-7.189-7.951-14.623-7.951-26.842c0-19.9,16.189-36.09,36.09-36.09s36.09,16.189,36.09,36.09
		c0,12.484-4.082,19.975-8.031,27.217c-3.488,6.4-6.785,12.447-6.785,21.695c0,1.77-0.221,3.432-0.654,4.943l-3.844-1.105
		c0.33-1.15,0.498-2.443,0.498-3.838c0-10.268,3.697-17.051,7.273-23.609c3.709-6.803,7.543-13.838,7.543-25.303
		c0-17.695-14.395-32.09-32.09-32.09s-32.09,14.395-32.09,32.09c0,11.201,3.795,18.182,7.467,24.932
		c3.613,6.645,7.35,13.518,7.35,23.98c0,1.521,0.199,2.918,0.592,4.152L73.506,133.158z"/>
	<path fill="#3C3C3C" d="M94,164.857c-8.152,0-14.615-6.936-16.557-13.463l3.836-1.141c1.549,5.213,6.732,10.604,12.721,10.604
		c5.922,0,11.1-5.332,12.686-10.488l3.824,1.176C108.525,157.998,102.064,164.857,94,164.857z"/>
	<path fill="#3C3C3C" d="M94.115,149.66c-5.072,0-10.152-1.145-14.117-3.434c-4.154-2.398-6.422-5.691-6.385-9.273l3.602,0.039
		c-0.023,2.225,1.604,4.396,4.584,6.117c6.77,3.908,17.754,3.932,24.484,0.047c2.928-1.689,4.527-3.834,4.504-6.037l3.602-0.039
		c0.037,3.561-2.201,6.826-6.305,9.193C104.174,148.531,99.148,149.66,94.115,149.66z"/>
	<path fill="#3C3C3C" d="M99.828,128.406c-1.564-0.902-3.652-1.398-5.883-1.398c-2.209,0-4.273,0.488-5.812,1.377
		c-1.426,0.824-2.211,1.883-2.211,2.98c0,1.109,0.799,2.184,2.25,3.021c1.564,0.902,3.652,1.398,5.883,1.398
		c2.209,0,4.273-0.488,5.812-1.377c1.426-0.822,2.211-1.881,2.211-2.98C102.078,130.318,101.279,129.246,99.828,128.406z
		 M91.309,132.318c-0.17,0.1-0.398,0.154-0.643,0.154c-0.248,0-0.479-0.057-0.65-0.156c-0.162-0.092-0.25-0.211-0.25-0.334
		c0-0.121,0.086-0.238,0.244-0.33c0.172-0.098,0.398-0.15,0.643-0.15c0.248,0,0.479,0.053,0.652,0.154
		c0.16,0.09,0.25,0.211,0.25,0.334C91.555,132.111,91.467,132.229,91.309,132.318z M97.795,132.318
		c-0.172,0.1-0.4,0.154-0.646,0.154s-0.477-0.057-0.648-0.156c-0.162-0.092-0.25-0.211-0.25-0.334c0-0.121,0.086-0.238,0.244-0.33
		c0.172-0.098,0.398-0.15,0.643-0.15c0.248,0,0.48,0.053,0.652,0.154c0.16,0.09,0.25,0.211,0.25,0.334
		C98.039,132.111,97.951,132.229,97.795,132.318z"/>
</g>
</svg>
