<?xml version="1.0" encoding="utf-8"?>
<!-- Generator: Adobe Illustrator 16.0.0, SVG Export Plug-In . SVG Version: 6.00 Build 0)  -->
<!DOCTYPE svg PUBLIC "-//W3C//DTD SVG 1.1//EN" "http://www.w3.org/Graphics/SVG/1.1/DTD/svg11.dtd">
<svg version="1.1" id="Layer_1" xmlns="http://www.w3.org/2000/svg" xmlns:xlink="http://www.w3.org/1999/xlink" x="0px" y="0px"
	 width="188px" height="188px" viewBox="0 0 188 188" enable-background="new 0 0 188 188" xml:space="preserve">
<g>
	<path fill="#3C3C3C" d="M33.912,133.524c-1.105,0-2-0.895-2-2v-13.102c0-1.105,0.895-2,2-2s2,0.895,2,2v13.102
		C35.912,132.63,35.018,133.524,33.912,133.524z"/>
	<path fill="#3C3C3C" d="M44.617,141.698c-1.105,0-2-0.895-2-2v-13.246c0-1.105,0.895-2,2-2s2,0.895,2,2v13.246
		C46.617,140.804,45.723,141.698,44.617,141.698z"/>
	<path fill="#3C3C3C" d="M55.32,146.706c-1.105,0-2-0.895-2-2v-13.17c0-1.105,0.895-2,2-2s2,0.895,2,2v13.17
		C57.32,145.812,56.426,146.706,55.32,146.706z"/>
	<path fill="#3C3C3C" d="M66.023,149.909c-1.105,0-2-0.895-2-2v-13.162c0-1.105,0.895-2,2-2s2,0.895,2,2v13.162
		C68.023,149.015,67.129,149.909,66.023,149.909z"/>
	<path fill="#3C3C3C" d="M76.729,151.81c-1.105,0-2-0.895-2-2V136.62c0-1.105,0.895-2,2-2s2,0.895,2,2v13.189
		C78.729,150.915,77.834,151.81,76.729,151.81z"/>
	<path fill="#3C3C3C" d="M87.432,152.587c-1.105,0-2-0.895-2-2v-13.164c0-1.105,0.895-2,2-2s2,0.895,2,2v13.164
		C89.432,151.692,88.537,152.587,87.432,152.587z"/>
	<path fill="#3C3C3C" d="M24,100.212c-0.041-7.338,3.336-14.459,9.764-20.596l2.762,2.895c-5.611,5.355-8.561,11.469-8.525,17.678
		L24,100.212z"/>
	<path fill="#3C3C3C" d="M41.912,107.524c-1.105,0-2-0.895-2-2V92.423c0-1.105,0.895-2,2-2s2,0.895,2,2v13.102
		C43.912,106.63,43.018,107.524,41.912,107.524z"/>
	<path fill="#3C3C3C" d="M52.617,115.698c-1.105,0-2-0.895-2-2v-13.246c0-1.105,0.895-2,2-2s2,0.895,2,2v13.246
		C54.617,114.804,53.723,115.698,52.617,115.698z"/>
	<path fill="#3C3C3C" d="M63.32,120.706c-1.105,0-2-0.895-2-2v-13.17c0-1.105,0.895-2,2-2s2,0.895,2,2v13.17
		C65.32,119.812,64.426,120.706,63.32,120.706z"/>
	<path fill="#3C3C3C" d="M74.023,123.909c-1.105,0-2-0.895-2-2v-13.162c0-1.105,0.895-2,2-2s2,0.895,2,2v13.162
		C76.023,123.015,75.129,123.909,74.023,123.909z"/>
	<path fill="#3C3C3C" d="M84.729,125.81c-1.105,0-2-0.895-2-2V110.62c0-1.105,0.895-2,2-2s2,0.895,2,2v13.189
		C86.729,124.915,85.834,125.81,84.729,125.81z"/>
	<g>
		<path fill="#3C3C3C" d="M90.57,152.591c-17.027,0-34-3.797-46.682-11.119C31.121,134.101,24.057,124.198,24,113.587v-13.416h4
			v13.406c0.049,9.121,6.402,17.801,17.889,24.43c20.797,12.014,53.738,14.08,78.314,4.92l1.398,3.75
			C114.93,150.651,102.736,152.591,90.57,152.591z"/>
		<path fill="#3C3C3C" d="M142.08,137.899l-2.402-3.199c8.068-6.057,12.33-13.248,12.322-20.795v-13.592h4v13.59
			C156.008,122.632,151.064,131.153,142.08,137.899z"/>
		<path fill="#3C3C3C" d="M98.137,152.333c-1.105,0-2-0.895-2-2v-13.18c0-1.105,0.895-2,2-2s2,0.895,2,2v13.18
			C100.137,151.438,99.242,152.333,98.137,152.333z"/>
		<path fill="#3C3C3C" d="M108.838,151.013c-1.105,0-2-0.895-2-2v-13.195c0-1.105,0.895-2,2-2s2,0.895,2,2v13.195
			C110.838,150.118,109.943,151.013,108.838,151.013z"/>
		<path fill="none" stroke="#3C3C3C" stroke-width="2" stroke-linecap="round" stroke-miterlimit="10" d="M116.191,147.913"/>
		<path fill="none" stroke="#3C3C3C" stroke-width="2" stroke-linecap="round" stroke-miterlimit="10" d="M116.191,134.747"/>
		<path fill="#3C3C3C" d="M119.543,148.452c-1.105,0-2-0.895-2-2v-13.311c0-1.105,0.895-2,2-2s2,0.895,2,2v13.311
			C121.543,147.558,120.648,148.452,119.543,148.452z"/>
		<path fill="#3C3C3C" d="M130.246,145.259c-1.105,0-2-0.895-2-2v-13.277c0-1.105,0.895-2,2-2s2,0.895,2,2v13.277
			C132.246,144.364,131.352,145.259,130.246,145.259z"/>
		<path fill="#3C3C3C" d="M139.596,139.562c-1.105,0-2-0.895-2-2v-13.109c0-1.105,0.895-2,2-2s2,0.895,2,2v13.109
			C141.596,138.667,140.701,139.562,139.596,139.562z"/>
		<path fill="none" stroke="#3C3C3C" stroke-width="2" stroke-linecap="round" stroke-miterlimit="10" d="M124.895,144.78"/>
		<path fill="#3C3C3C" d="M146.301,133.2c-1.105,0-2-0.895-2-2V117.89c0-1.105,0.895-2,2-2s2,0.895,2,2V131.2
			C148.301,132.306,147.406,133.2,146.301,133.2z"/>
		<path fill="#3C3C3C" d="M90.404,139.218c-16.82,0-33.672-3.711-46.516-11.127c-12.766-7.367-19.83-17.268-19.889-27.879l4-0.023
			c0.051,9.133,6.404,17.811,17.889,24.438c24.477,14.131,64.18,14.211,88.508,0.166c11.451-6.611,17.701-15.297,17.602-24.457
			l4-0.043c0.115,10.666-6.846,20.598-19.602,27.965C123.734,135.565,107.086,139.218,90.404,139.218z"/>
		<path fill="#3C3C3C" d="M124.896,146.987c-0.756,0-1.479-0.43-1.816-1.16c-0.465-1.004-0.027-2.191,0.975-2.654l1.994-0.922
			c9.52-4.396,9.52-4.396,13.662-7.664c0.871-0.682,2.125-0.533,2.809,0.332c0.684,0.867,0.535,2.125-0.332,2.809
			c-4.514,3.561-4.887,3.732-14.461,8.154l-1.992,0.92C125.463,146.929,125.176,146.987,124.896,146.987z"/>
		<path fill="#3C3C3C" d="M84.025,81.55l-0.676-0.389c-0.959-0.553-1.92-1.119-2.861-1.684l-0.541-0.326l-6.209,3.584l-2.699-1.562
			l6.256-3.613l-0.535-0.314c-0.322-0.188-0.645-0.379-0.967-0.568c-0.566-0.334-1.141-0.672-1.725-1.01l-4.295-2.479l3.986-1.643
			c0.434,0.258,1.092,0.646,1.592,0.936c0.357,0.205,0.576,0.332,0.754,0.41c1.072,0.6,2.43,0.645,3.635,0.121l0.041-0.018
			l9.381-5.412l0.021,0.012l1.133-0.561l-0.09-0.068l6.607-3.814l0.039-0.035c0.623-0.529,1.379-1.588-0.568-2.742
			c-0.135-0.102-0.352-0.227-0.707-0.432c-0.479-0.277-1.121-0.639-1.551-0.881l2.936-1.695l4.154,2.402l-0.018,0.012l0.529,0.305
			c0.797,0.461,1.617,0.916,2.457,1.381l0.543,0.301l6.182-3.566l2.701,1.561l-6.078,3.51l0.564,0.314
			c0.85,0.471,2.016,1.117,3.059,1.721l0.543,0.312l6.029-3.48l2.705,1.561l-6.145,3.551l0.453,0.311
			c5.113,3.514,6.008,6.197,2.814,8.436c-2.492,1.752-5.359,2.289-8.768,1.645l-1.977-0.373l1.09,1.023
			c2.896,2.721,2.201,4.967-2.193,7.068c-5.307,2.545-10.609,1.965-18.303-1.996l-0.541-0.281l-6.223,3.59l-2.707-1.562
			L84.025,81.55z M95.246,73.937c-0.578-0.332-1.117-0.629-1.594-0.891l-0.068-0.037c-0.184-0.104-0.357-0.199-0.516-0.285
			l-0.182-0.102l-7.938,4.582l0.557,0.328c0.338,0.201,0.717,0.426,1.135,0.668c1.531,0.887,3.848,2.143,6.223,2.852
			c2.648,0.787,4.719,0.719,6.326-0.211C101.924,79.263,100.67,77.069,95.246,73.937z M106.172,67.175
			c-0.488-0.281-0.963-0.543-1.342-0.748l-0.619-0.342l-7.164,4.137l0.436,0.262c0.297,0.176,0.629,0.373,0.996,0.586
			c4.811,2.779,8.197,3.41,10.65,1.994c1.441-0.832,1.703-1.818,0.799-3.014C109.076,68.925,107.375,67.87,106.172,67.175z"/>
		<path fill="#3C3C3C" d="M98.57,126.591c-17.027,0-34-3.797-46.682-11.119C39.121,108.101,32.057,98.198,32,87.587V74.171h4v13.406
			c0.049,9.121,6.402,17.801,17.889,24.43c20.797,12.014,53.738,14.082,78.314,4.92l1.398,3.75
			C122.93,124.651,110.736,126.591,98.57,126.591z"/>
		<path fill="#3C3C3C" d="M150.08,111.899l-2.402-3.199c8.068-6.057,12.33-13.248,12.322-20.795V74.313h4v13.59
			C164.008,96.632,159.064,105.153,150.08,111.899z"/>
		<path fill="#3C3C3C" d="M95.432,126.587c-1.105,0-2-0.895-2-2v-13.164c0-1.105,0.895-2,2-2s2,0.895,2,2v13.164
			C97.432,125.692,96.537,126.587,95.432,126.587z"/>
		<path fill="#3C3C3C" d="M106.137,126.333c-1.105,0-2-0.895-2-2v-13.18c0-1.105,0.895-2,2-2s2,0.895,2,2v13.18
			C108.137,125.438,107.242,126.333,106.137,126.333z"/>
		<path fill="#3C3C3C" d="M116.838,125.013c-1.105,0-2-0.895-2-2v-13.195c0-1.105,0.895-2,2-2s2,0.895,2,2v13.195
			C118.838,124.118,117.943,125.013,116.838,125.013z"/>
		<path fill="none" stroke="#3C3C3C" stroke-width="2" stroke-linecap="round" stroke-miterlimit="10" d="M124.191,121.913"/>
		<path fill="none" stroke="#3C3C3C" stroke-width="2" stroke-linecap="round" stroke-miterlimit="10" d="M124.191,108.747"/>
		<path fill="#3C3C3C" d="M127.543,122.452c-1.105,0-2-0.895-2-2v-13.311c0-1.105,0.895-2,2-2s2,0.895,2,2v13.311
			C129.543,121.558,128.648,122.452,127.543,122.452z"/>
		<path fill="#3C3C3C" d="M138.246,119.259c-1.105,0-2-0.895-2-2v-13.277c0-1.105,0.895-2,2-2s2,0.895,2,2v13.277
			C140.246,118.364,139.352,119.259,138.246,119.259z"/>
		<path fill="#3C3C3C" d="M147.596,113.562c-1.105,0-2-0.895-2-2V98.452c0-1.105,0.895-2,2-2s2,0.895,2,2v13.109
			C149.596,112.667,148.701,113.562,147.596,113.562z"/>
		<path fill="none" stroke="#3C3C3C" stroke-width="2" stroke-linecap="round" stroke-miterlimit="10" d="M132.895,118.78"/>
		<path fill="#3C3C3C" d="M154.301,107.2c-1.105,0-2-0.895-2-2V91.89c0-1.105,0.895-2,2-2s2,0.895,2,2V105.2
			C156.301,106.306,155.406,107.2,154.301,107.2z"/>
		<path fill="#3C3C3C" d="M159.998,74.335c-0.098-9.092-6.449-17.732-17.885-24.334c-24.48-14.133-64.184-14.209-88.512-0.166
			C42.199,56.419,35.949,65.067,36,74.188l-4,0.023c-0.059-10.621,6.902-20.508,19.602-27.842
			c25.43-14.678,66.93-14.605,92.512,0.166c12.709,7.338,19.771,17.193,19.885,27.756L159.998,74.335z"/>
		<path fill="#3C3C3C" d="M98.404,113.218c-16.82,0-33.672-3.711-46.516-11.127C39.123,94.724,32.059,84.823,32,74.212l4-0.023
			c0.051,9.133,6.404,17.811,17.889,24.438c24.475,14.131,64.178,14.211,88.508,0.166c11.451-6.611,17.701-15.297,17.602-24.457
			l4-0.043c0.115,10.666-6.846,20.598-19.602,27.965C131.734,109.565,115.086,113.218,98.404,113.218z"/>
		<path fill="#3C3C3C" d="M132.896,120.987c-0.756,0-1.479-0.43-1.816-1.16c-0.465-1.004-0.027-2.191,0.975-2.654l1.994-0.922
			c9.52-4.396,9.52-4.396,13.662-7.664c0.869-0.682,2.125-0.533,2.809,0.332c0.684,0.867,0.535,2.125-0.332,2.809
			c-4.514,3.561-4.887,3.732-14.461,8.154l-1.992,0.92C133.463,120.929,133.176,120.987,132.896,120.987z"/>
	</g>
</g>
</svg>
