<?xml version="1.0" encoding="utf-8"?>
<!-- Generator: Adobe Illustrator 16.0.0, SVG Export Plug-In . SVG Version: 6.00 Build 0)  -->
<!DOCTYPE svg PUBLIC "-//W3C//DTD SVG 1.1//EN" "http://www.w3.org/Graphics/SVG/1.1/DTD/svg11.dtd">
<svg version="1.1" id="Layer_1" xmlns="http://www.w3.org/2000/svg" xmlns:xlink="http://www.w3.org/1999/xlink" x="0px" y="0px"
	 width="188px" height="188px" viewBox="0 0 188 188" enable-background="new 0 0 188 188" xml:space="preserve">
<g>
	<g>
		<g>
			<path fill="#FFFFFF" d="M160.094,101.316v8.5c0.043,6.512-4.557,13.283-13.643,18.531c-28.785,16.616-113.8,7.053-113.8,7.053
				s-2.434-7.209-3.814-17.037V97.541"/>
			<path fill="#3C3C3C" d="M83.979,140.18c-26.174,0-49.717-2.586-51.551-2.791l-1.266-0.143l-0.406-1.205
				c-0.102-0.303-2.51-7.5-3.9-17.4l-0.02-0.277V97.541h4v20.682c1.016,7.152,2.607,12.92,3.33,15.326
				c10.756,1.1,85.302,8.064,111.285-6.934c8.074-4.664,12.682-10.781,12.643-16.785v-8.514h4v8.5
				c0.049,7.469-5.287,14.858-14.643,20.264C133.646,138.049,107.729,140.18,83.979,140.18z"/>
		</g>
		<g>
			<path fill="#FFFFFF" d="M149.439,82.633c-9.64-5.566-23.58-7.316-36.812-5.406c3.306-7.641,0.272-15.689-9.362-21.254
				c-15.305-8.834-41.448-8.062-58.403,1.725C16.083,74.316,32.651,123.4,32.651,123.4s85.015,9.563,113.8-7.053
				C163.402,106.559,164.738,91.467,149.439,82.633z"/>
			<path fill="#3C3C3C" d="M84.049,128.139c-0.004,0-0.002,0-0.006,0c-26.846,0-51.371-2.723-51.615-2.75l-1.266-0.143l-0.406-1.207
				c-0.174-0.512-4.242-12.711-4.791-27.182c-0.742-19.562,5.447-33.704,17.898-40.894c8.967-5.176,20.973-8.145,32.939-8.145
				c10.537,0,20.291,2.281,27.462,6.42c8.906,5.143,13,12.826,11.236,20.619c2.49-0.25,4.996-0.377,7.482-0.377
				c10.537,0,20.287,2.279,27.455,6.418c7.516,4.34,11.653,10.379,11.653,17.008c0,7.444-5.338,14.797-14.643,20.172
				C135.889,124.754,114.555,128.139,84.049,128.139z M34.168,121.551c5.383,0.553,26.762,2.588,49.875,2.588
				c0.002,0,0.004,0,0.006,0c29.376,0,50.609-3.293,61.402-9.522c8.035-4.64,12.643-10.729,12.643-16.707
				c0-5.139-3.43-9.949-9.654-13.543c-6.569-3.795-15.608-5.883-25.455-5.883c-3.352,0-6.739,0.242-10.069,0.723l-3.541,0.512
				l1.42-3.285c3.037-7.018-0.071-13.844-8.526-18.727c-6.574-3.795-15.618-5.885-25.462-5.885c-11.285,0-22.562,2.773-30.939,7.609
				C21.252,73.641,31.924,114.025,34.168,121.551z"/>
		</g>
		<g>
			<g>
				<polygon fill="#3C3C3C" points="106.129,90.822 104.844,90.08 108.975,87.691 110.264,88.434 				"/>
				<polygon fill="#3C3C3C" points="101.625,88.223 100.338,87.479 104.473,85.092 105.758,85.834 				"/>
				<polygon fill="#3C3C3C" points="97.123,85.623 95.832,84.877 99.967,82.492 101.258,83.234 				"/>
				<polygon fill="#3C3C3C" points="92.616,83.02 91.329,82.277 95.465,79.893 96.752,80.635 				"/>
			</g>
			<g>
				<polygon fill="#3C3C3C" points="80.553,105.59 79.264,104.846 83.399,102.459 84.688,103.203 				"/>
				<polygon fill="#3C3C3C" points="76.047,102.988 74.76,102.246 78.897,99.859 80.184,100.604 				"/>
				<polygon fill="#3C3C3C" points="71.543,100.389 70.258,99.643 74.391,97.258 75.678,98.004 				"/>
				<polygon fill="#3C3C3C" points="67.04,97.787 65.752,97.043 69.887,94.658 71.174,95.4 				"/>
			</g>
			<g>
				<polygon fill="#3C3C3C" points="84.567,80.969 83.284,81.707 79.125,79.305 80.405,78.568 				"/>
				<polygon fill="#3C3C3C" points="80.086,83.553 78.811,84.291 74.649,81.889 75.926,81.152 				"/>
				<polygon fill="#3C3C3C" points="75.612,86.135 74.336,86.873 70.176,84.473 71.454,83.734 				"/>
				<polygon fill="#3C3C3C" points="71.135,88.723 69.856,89.461 65.694,87.059 66.975,86.32 				"/>
			</g>
			<g>
				<polygon fill="#3C3C3C" points="108.066,97.121 106.789,97.861 102.625,95.457 103.906,94.717 				"/>
				<polygon fill="#3C3C3C" points="103.592,99.705 102.314,100.443 98.148,98.041 99.43,97.305 				"/>
				<polygon fill="#3C3C3C" points="99.115,102.287 97.834,103.027 93.674,100.625 94.952,99.887 				"/>
				<polygon fill="#3C3C3C" points="94.637,104.875 93.36,105.613 89.198,103.211 90.473,102.473 				"/>
			</g>
		</g>
		<polygon fill="#3C3C3C" points="159.957,100.148 141.652,98.615 122.605,87.621 112.422,87.602 110.121,88.93 109.121,87.195 
			111.887,85.602 123.145,85.621 123.375,85.756 142.457,96.771 160.113,98.156 		"/>
		<polygon fill="#3C3C3C" points="159.938,97.285 145.564,96.445 125.803,85.035 107.918,85 105.615,86.328 104.615,84.598 
			107.383,83 126.342,83.035 126.572,83.17 146.154,94.477 160.055,95.289 		"/>
		<polygon fill="#3C3C3C" points="71.278,125.959 71.254,121.078 79.045,116.582 80.045,118.312 73.258,122.23 73.278,125.947 		"/>
		<polygon fill="#3C3C3C" points="63.647,125.945 63.62,121.066 75.266,114.342 76.266,116.072 65.627,122.219 65.647,125.934 		"/>
		<polygon fill="#3C3C3C" points="79.803,120.4 74.518,117.348 80.961,113.633 86.252,116.684 		"/>
		<polygon fill="#3C3C3C" points="75.946,118.172 70.657,115.121 77.096,111.404 82.399,114.453 		"/>
		<path fill="#3C3C3C" d="M46.917,120.504c-0.346,0-0.693,0.074-0.959,0.227c-0.527,0.308-0.523,0.806,0.008,1.111
			c0.268,0.154,0.617,0.232,0.965,0.232c0.348,0,0.693-0.076,0.957-0.23c0.531-0.305,0.529-0.803-0.004-1.109
			C47.618,120.58,47.266,120.504,46.917,120.504L46.917,120.504z"/>
		<polygon fill="#3C3C3C" points="86.95,104.508 65.372,92.051 86.815,79.67 108.391,92.129 		"/>
		<polygon fill="#3C3C3C" points="85.383,127.006 84.383,125.271 105.557,113.07 93.5,106.105 94.5,104.375 109.561,113.074 		"/>
		<polygon fill="#3C3C3C" points="150.68,115.965 122.705,99.904 114.059,99.889 109.168,97.064 110.168,95.334 114.598,97.889 
			123.24,97.904 151.676,114.23 		"/>
		<polygon fill="#3C3C3C" points="139.846,120.068 114.398,105.445 105.748,105.432 100.213,102.232 101.213,100.502 
			106.287,103.432 114.934,103.445 140.842,118.334 		"/>
		<polygon fill="#3C3C3C" points="48.274,121.703 47.274,119.973 54.235,115.953 54.209,111.098 72.653,100.451 73.653,102.182 
			56.217,112.25 56.243,117.105 		"/>
		<polygon fill="#3C3C3C" points="91.596,115.424 84.534,111.348 93.667,106.074 100.73,110.158 		"/>
		<polygon fill="#3C3C3C" points="86.622,115.375 71.215,106.482 77.155,103.051 78.155,104.781 75.215,106.482 86.622,113.066 
			89.567,111.367 90.567,113.098 		"/>
		<polygon fill="#3C3C3C" points="96.77,81.223 95.773,79.488 97.805,78.318 97.764,71.062 78.336,59.848 76.329,50.121 
			78.286,49.715 80.114,58.562 99.756,69.902 99.812,79.471 		"/>
		<polygon fill="#3C3C3C" points="101.277,83.824 100.277,82.094 102.307,80.92 102.242,69.219 82.211,57.652 81.11,50.252 
			83.086,49.959 84.047,56.402 104.234,68.059 104.314,82.072 		"/>
		<polygon fill="#3C3C3C" points="36.094,99.426 28.381,99.412 28.385,97.412 35.559,97.426 40.762,94.422 41.762,96.152 		"/>
		<polygon fill="#3C3C3C" points="36.116,103.834 28.409,103.82 28.413,101.82 35.581,101.834 44.592,96.633 45.592,98.363 		"/>
		<polygon fill="#3C3C3C" points="41.36,98.207 36.081,95.158 42.516,91.434 47.809,94.494 		"/>
		<polygon fill="#3C3C3C" points="45.219,100.436 39.934,97.383 46.381,93.668 51.667,96.721 		"/>
		<path fill="#3C3C3C" d="M83.483,56.307c-0.357,0-0.715,0.078-0.986,0.236c-0.543,0.314-0.541,0.824,0.004,1.139
			c0.275,0.16,0.635,0.238,0.994,0.238c0.355,0,0.711-0.078,0.982-0.234c0.545-0.312,0.543-0.826-0.004-1.141
			C84.2,56.385,83.84,56.307,83.483,56.307L83.483,56.307z"/>
		<path fill="#3C3C3C" d="M36.465,114.469c-0.348,0-0.693,0.076-0.957,0.23c-0.531,0.305-0.527,0.801,0.004,1.109
			c0.27,0.153,0.619,0.231,0.969,0.231c0.348,0,0.693-0.076,0.959-0.229c0.529-0.309,0.525-0.805-0.01-1.112
			C37.165,114.547,36.813,114.469,36.465,114.469L36.465,114.469z"/>
		<polygon fill="#3C3C3C" points="29.362,94.596 28.311,92.893 50.688,79.082 64.766,87.211 63.766,88.941 50.723,81.41 		"/>
		<polygon fill="#3C3C3C" points="79.432,79.896 74.274,76.92 74.245,71.92 48.206,56.566 49.221,54.844 76.237,70.775 
			76.266,75.76 80.432,78.166 		"/>
		<polygon fill="#3C3C3C" points="70.479,85.066 64.676,81.717 64.649,76.715 40.446,62.412 41.461,60.689 66.641,75.57 
			66.668,80.557 71.479,83.336 		"/>
		<polygon fill="#3C3C3C" points="37.754,115.631 36.754,113.9 44.452,109.455 52.858,109.473 70.567,99.246 71.567,100.977 
			53.393,111.473 44.987,111.455 		"/>
		<polygon fill="#3C3C3C" points="53.692,93.541 46.627,89.461 55.754,84.188 62.823,88.273 		"/>
		<polygon fill="#3C3C3C" points="62.12,101.23 46.715,92.334 51.655,89.479 52.655,91.209 50.711,92.334 62.12,98.922 
			66.061,96.646 67.061,98.377 		"/>
	</g>
	<polygon fill="#3C3C3C" points="86.95,100.508 65.372,88.051 86.815,75.67 108.391,88.129 	"/>
</g>
</svg>
