<?xml version="1.0" encoding="utf-8"?>
<!-- Generator: Adobe Illustrator 16.0.0, SVG Export Plug-In . SVG Version: 6.00 Build 0)  -->
<!DOCTYPE svg PUBLIC "-//W3C//DTD SVG 1.1//EN" "http://www.w3.org/Graphics/SVG/1.1/DTD/svg11.dtd">
<svg version="1.1" id="Layer_1" xmlns="http://www.w3.org/2000/svg" xmlns:xlink="http://www.w3.org/1999/xlink" x="0px" y="0px"
	 width="124px" height="120px" viewBox="0 0 124 120" enable-background="new 0 0 124 120" xml:space="preserve">
<g>
	<polygon fill="#FFFFFF" points="59.482,66.052 56.653,64.391 43.911,71.689 59.482,80.719 	"/>
	<polygon fill="#FFFFFF" points="31.075,75.736 53.803,62.718 31.075,49.375 	"/>
	<path fill="#FFFFFF" d="M30.481,108.059l0.027-0.01l0.04-0.008l2.018-1.12L7.827,92.574c-0.183-0.105-0.33-0.248-0.445-0.408
		l-3.686,2.048C1.654,95.382,0,98.193,0,100.514c0,1.16,0.513,1.971,1.182,2.345l0.043,0.031v0.069l24.129,13.817
		C25.379,113.458,27.577,109.72,30.481,108.059z"/>
	<path fill="#FFFFFF" d="M59.417,92.018l0.065-0.035v-7.946l-18.13-10.515c-0.104-0.06-0.191-0.132-0.273-0.211l-13.885,7.954
		l25.232,14.634L59.417,92.018z"/>
	<polygon fill="#FFFFFF" points="10.518,90.817 35.488,105.299 49.504,97.52 24.318,82.913 	"/>
	<path fill="#FFFFFF" d="M53.649,109.977l3.429-1.9l12.515,6.9V61.281L21.928,34.225v45.978l-3.371,1.931v-52.13L71.278,0
		L124,30.003v59.994L71.278,120L53.649,109.977z M72.964,62.862v52.063l47.665-26.861v-56.13l-2.819-1.604L71.278,3.852
		L23.301,31.153l49.36,28.027l48.821-29.354l1.683,2.894L72.964,62.862z"/>
	<path fill="#FFFFFF" d="M55.895,105.673l3.588-1.988v-8.37l-6.175,3.423c-0.088,0.062-0.18,0.112-0.277,0.154l-15.075,8.356
		c0.081,0.344-2.467,1.367-2.467,1.367l-3.467,1.922c-2.042,1.167-3.764,3.978-3.764,6.3c0,0.866,0.24,1.53,0.64,1.97l0.034,0.02
		c0.313,0.338,0.731,0.529,1.212,0.572c0.042,0.004,0.083,0.013,0.127,0.013c0.057,0.002,0.115-0.005,0.174-0.008
		c0.472-0.026,1.025-0.183,1.571-0.495L55.895,105.673L55.895,105.673z"/>
</g>
</svg>
