<?xml version="1.0" encoding="utf-8"?>
<!-- Generator: Adobe Illustrator 16.0.0, SVG Export Plug-In . SVG Version: 6.00 Build 0)  -->
<!DOCTYPE svg PUBLIC "-//W3C//DTD SVG 1.1//EN" "http://www.w3.org/Graphics/SVG/1.1/DTD/svg11.dtd">
<svg version="1.1" id="Layer_1" xmlns="http://www.w3.org/2000/svg" xmlns:xlink="http://www.w3.org/1999/xlink" x="0px" y="0px"
	 width="200px" height="200px" viewBox="0 0 200 200" enable-background="new 0 0 200 200" xml:space="preserve">
<g>
	<g>
		<g>
			<path fill="#FAFAFA" d="M170.158,69.026v38.109l15.48-9.089V59.932L170.158,69.026z"/>
			<path fill="#3C3C3C" d="M170.965,108.504l-2.396-1.369V69.026l0.785-1.371l15.479-9.093l2.396,1.37v38.113l-0.783,1.369
				L170.965,108.504z M171.748,69.934v34.425l12.301-7.225V62.708L171.748,69.934z"/>
		</g>
		<g>
			<path fill="#FAFAFA" d="M162.32,64.412l7.838,4.571l15.48-9.093l-7.841-4.571L162.32,64.412z"/>
			<path fill="#3C3C3C" d="M169.357,70.357l-7.838-4.572l-0.006-2.743l15.479-9.094l1.604-0.003l7.838,4.571l0.006,2.744
				l-15.479,9.094L169.357,70.357z M165.465,64.408l4.691,2.734l12.336-7.247l-4.689-2.735L165.465,64.408z"/>
		</g>
		<g>
			<path fill="#FAFAFA" d="M162.32,64.412v38.111l7.928,4.611V69.026L162.32,64.412z"/>
			<path fill="#3C3C3C" d="M169.449,108.508l-7.928-4.611l-0.791-1.373V64.412l2.389-1.373l7.928,4.614l0.791,1.373v38.109
				L169.449,108.508z M163.91,101.609l4.75,2.764V69.94l-4.75-2.764V101.609z"/>
		</g>
	</g>
	<g>
		<g>
			<path fill="#FAFAFA" d="M129.096,50.361v38.11l15.48-9.093v-38.11L129.096,50.361z"/>
			<path fill="#3C3C3C" d="M129.902,89.841l-2.396-1.37v-38.11l0.783-1.371l15.479-9.092l2.396,1.37v38.11l-0.785,1.371
				L129.902,89.841z M130.686,51.27v34.426l12.303-7.226V44.043L130.686,51.27z"/>
		</g>
		<g>
			<path fill="#FAFAFA" d="M121.26,45.748l7.836,4.571l15.48-9.094l-7.838-4.57L121.26,45.748z"/>
			<path fill="#3C3C3C" d="M128.295,51.692l-7.836-4.57l-0.004-2.743l15.479-9.094l1.605-0.003l7.838,4.57l0.004,2.744
				l-15.479,9.093L128.295,51.692z M124.404,45.743l4.688,2.735l12.339-7.247l-4.689-2.734L124.404,45.743z"/>
		</g>
		<g>
			<path fill="#FAFAFA" d="M121.26,45.748v38.11l7.928,4.613v-38.11L121.26,45.748z"/>
			<path fill="#3C3C3C" d="M128.389,89.845l-7.93-4.614l-0.789-1.373v-38.11l2.389-1.372l7.928,4.611l0.789,1.374v38.11
				L128.389,89.845z M122.848,82.944l4.75,2.764V51.275l-4.75-2.765V82.944z"/>
		</g>
	</g>
	<g>
		<g>
			<path fill="#F5F5F5" d="M5.132,114.656v11.061l82.885,47.977l106.85-62.161v-11.058"/>
			<polygon fill="#3C3C3C" points="87.222,175.068 4.335,127.092 3.543,125.717 3.543,114.656 6.721,114.656 6.721,124.801 
				88.017,171.855 193.279,110.617 193.279,100.473 196.457,100.473 196.457,111.531 195.668,112.904 88.817,175.066 			"/>
		</g>
		<g>
			<path fill="#F5F5F5" d="M5.132,114.656l82.885,47.977l106.85-62.16l-82.889-47.978L5.132,114.656z"/>
			<path fill="#3C3C3C" d="M87.222,164.008L4.335,116.031l-0.003-2.75l106.848-62.16h1.596l82.889,47.977l0.004,2.748
				l-106.851,62.16L87.222,164.008z M8.298,114.652l79.719,46.143l103.684-60.318L111.98,54.333L8.298,114.652z"/>
		</g>
		<rect x="87" y="162" fill="#3C3C3C" width="3" height="12"/>
	</g>
	<g>
		<g>
			<path fill="#F5F5F5" d="M12.598,95.881v10.188l76.363,44.205l98.441-57.271V82.815"/>
			<polygon fill="#3C3C3C" points="88.166,151.646 11.801,107.445 11.009,106.068 11.009,95.881 14.187,95.881 14.187,105.152 
				88.96,148.436 185.812,92.089 185.812,82.815 188.992,82.815 188.992,93.002 188.201,94.376 89.76,151.646 			"/>
		</g>
		<g>
			<path fill="#F5F5F5" d="M12.598,95.881l76.363,44.203l98.441-57.269l-76.365-44.203L12.598,95.881z"/>
			<path fill="#3C3C3C" d="M88.166,141.459L11.801,97.256l-0.002-2.749l98.439-57.269l1.596-0.002l76.365,44.203l0.002,2.748
				l-98.441,57.27L88.166,141.459z M15.764,95.878l73.196,42.368l95.276-55.428l-73.197-42.369L15.764,95.878z"/>
		</g>
		<g>
			<path fill="#F5F5F5" d="M34.696,94.228l57.056,33.026l73.553-42.788L108.246,51.44L34.696,94.228z"/>
			<path fill="#3C3C3C" d="M90.956,128.629L33.9,95.603l-0.004-2.748l73.553-42.788l1.594-0.001l57.059,33.024l0.002,2.749
				L92.55,128.627L90.956,128.629z M37.862,94.226l53.889,31.19l70.388-40.947l-53.891-31.191L37.862,94.226z"/>
		</g>
		<polygon fill="#3C3C3C" points="45.145,101.186 43.545,98.44 107.449,61.265 109.043,61.263 156.453,88.706 154.863,91.456 
			108.248,64.475 		"/>
		<rect x="87" y="140" fill="#3C3C3C" width="3" height="10"/>
		<rect x="106" y="51" fill="#3C3C3C" width="4" height="13"/>
	</g>
	<g>
		<g>
			<path fill="#FAFAFA" d="M122.451,45.053v13.322l20.936-11.991v-13.32L122.451,45.053z"/>
			<path fill="#3C3C3C" d="M123.24,59.755l-2.379-1.38V45.053l0.799-1.38l20.938-11.989l2.377,1.38v13.32l-0.799,1.38L123.24,59.755
				z M124.039,45.975v9.658l17.758-10.171v-9.658L124.039,45.975z"/>
		</g>
		<g>
			<path fill="#FAFAFA" d="M111.037,38.302l11.414,6.708l20.936-11.99l-11.412-6.709L111.037,38.302z"/>
			<path fill="#3C3C3C" d="M123.24,46.389l-1.596-0.009l-11.412-6.707l0.016-2.75l20.938-11.992l1.594,0.011l11.414,6.708
				l-0.018,2.75L123.24,46.389z M114.205,38.32l8.256,4.853l17.76-10.171l-8.258-4.853L114.205,38.32z"/>
		</g>
		<g>
			<path fill="#FAFAFA" d="M111.037,38.302v13.319l11.5,6.754V45.053L111.037,38.302z"/>
			<path fill="#3C3C3C" d="M121.73,59.746l-11.498-6.753l-0.785-1.371v-13.32l2.395-1.37l11.498,6.751l0.785,1.37v13.322
				L121.73,59.746z M112.625,50.712l8.322,4.887v-9.637l-8.322-4.884V50.712z"/>
		</g>
	</g>
	<g>
		<line fill="none" x1="161.988" y1="56.9" x2="136.4" y2="41.698"/>
		<path fill="#3C3C3C" d="M161.986,59.284c-0.414,0-0.834-0.107-1.217-0.334l-25.588-15.201c-1.132-0.674-1.505-2.136-0.83-3.269
			c0.674-1.132,2.133-1.503,3.266-0.831l25.59,15.2c1.129,0.674,1.504,2.136,0.83,3.269
			C163.592,58.868,162.799,59.284,161.986,59.284z"/>
	</g>
	<g>
		<g>
			<path fill="#FAFAFA" d="M163.512,69.317v13.321l20.937-11.991V57.329L163.512,69.317z"/>
			<path fill="#3C3C3C" d="M164.303,84.018l-2.379-1.38V69.317l0.797-1.379l20.938-11.989l2.379,1.38v13.318l-0.802,1.38
				L164.303,84.018z M165.102,70.239v9.658l17.758-10.172v-9.656L165.102,70.239z"/>
		</g>
		<g>
			<path fill="#FAFAFA" d="M152.098,62.565l11.414,6.709l20.937-11.99l-11.412-6.708L152.098,62.565z"/>
			<path fill="#3C3C3C" d="M164.303,70.653l-1.596-0.009l-11.414-6.708l0.016-2.75l20.937-11.989l1.596,0.009l11.412,6.707
				l-0.017,2.75L164.303,70.653z M155.264,62.584l8.26,4.853l17.759-10.171l-8.257-4.854L155.264,62.584z"/>
		</g>
		<g>
			<path fill="#FAFAFA" d="M152.098,62.565v13.321l11.5,6.752V69.317L152.098,62.565z"/>
			<path fill="#3C3C3C" d="M162.793,84.008l-11.498-6.752l-0.785-1.37V62.565l2.393-1.37l11.498,6.752l0.787,1.37v13.321
				L162.793,84.008z M153.688,74.977l8.32,4.885v-9.636l-8.32-4.885V74.977L153.688,74.977z"/>
		</g>
	</g>
	<g>
		<g>
			<path fill="#FAFAFA" d="M87.845,56.894c-0.282-0.264-0.615-0.45-0.989-0.553l-0.172-0.095l-0.006,0.051
				c-0.788-0.154-1.738,0.036-2.764,0.628c-2.727,1.574-4.94,5.389-4.94,8.519c0,3.133,4.94,13.031,4.94,13.031l43.898,25.466
				l1.319-10.092l2.216-11.788L87.845,56.894z"/>
			<path fill="#3C3C3C" d="M127.018,105.316l-43.9-25.467l-0.624-0.666c-0.854-1.708-5.107-10.403-5.107-13.74
				c0-3.691,2.52-8.038,5.735-9.896c1.335-0.771,2.692-1.04,3.865-0.811l-0.081,0.413l0.322-0.172l0.046-0.17
				c0.06,0.015,0.117,0.033,0.177,0.052l0.006-0.004l0.023,0.014c0.477,0.157,0.914,0.402,1.299,0.728l43.367,25.089l0.766,1.668
				l-2.217,11.786l-1.305,10.006L127.018,105.316z M85.126,77.34l41.422,24.03l1.009-7.728l2.022-10.77L86.76,58.054
				c-0.094-0.088-0.198-0.146-0.322-0.18l-0.06-0.023l-0.008,0.007c-0.345-0.071-0.804-0.052-1.663,0.444
				c-2.245,1.296-4.144,4.567-4.144,7.142C80.563,67.375,83.276,73.58,85.126,77.34z"/>
		</g>
		<g>
			<path fill="#FAFAFA" d="M132.753,85.206c0,3.13-4.94,18.735-4.94,18.735s-4.938-9.901-4.938-13.033
				c0-3.128,2.21-6.943,4.938-8.518C130.541,80.816,132.753,82.076,132.753,85.206z"/>
			<path fill="#3C3C3C" d="M126.393,104.65c-0.854-1.709-5.107-10.404-5.105-13.743c0-3.691,2.52-8.038,5.732-9.895
				c1.023-0.591,2.037-0.891,3.01-0.891c2.146,0,4.312,1.572,4.312,5.084c0,3.28-4.5,17.594-5.015,19.215L126.393,104.65z
				 M130.027,83.301c-0.279,0-0.754,0.08-1.42,0.466c-2.246,1.295-4.144,4.566-4.144,7.142c0,1.44,1.505,5.252,3.036,8.657
				c1.732-5.74,3.663-12.67,3.663-14.359C131.164,84.496,131.018,83.301,130.027,83.301z"/>
		</g>
	</g>
	
		<rect x="76.631" y="77.277" transform="matrix(-0.8731 -0.4876 0.4876 -0.8731 152.0665 195.7326)" fill="#3C3C3C" width="49.761" height="1.59"/>
</g>
</svg>
