<?xml version="1.0" encoding="utf-8"?>
<!-- Generator: Adobe Illustrator 16.0.0, SVG Export Plug-In . SVG Version: 6.00 Build 0)  -->
<!DOCTYPE svg PUBLIC "-//W3C//DTD SVG 1.1//EN" "http://www.w3.org/Graphics/SVG/1.1/DTD/svg11.dtd">
<svg version="1.1" id="Layer_1" xmlns="http://www.w3.org/2000/svg" xmlns:xlink="http://www.w3.org/1999/xlink" x="0px" y="0px"
	 width="200px" height="200px" viewBox="0 0 200 200" enable-background="new 0 0 200 200" xml:space="preserve">
<g>
	<path fill="#3C3C3C" d="M114.145,48.566c-0.137,0-0.272-0.034-0.398-0.107L92.767,36.273c-0.38-0.22-0.509-0.707-0.289-1.086
		c0.22-0.383,0.71-0.51,1.087-0.288l20.979,12.185c0.381,0.22,0.509,0.708,0.288,1.087
		C114.686,48.424,114.417,48.566,114.145,48.566z"/>
	<path fill="#3C3C3C" d="M164.309,77.699c-0.137,0-0.273-0.034-0.397-0.106l-18.897-10.974c-0.38-0.22-0.509-0.707-0.287-1.086
		c0.221-0.383,0.707-0.51,1.086-0.288l18.896,10.973c0.381,0.22,0.51,0.708,0.288,1.086
		C164.85,77.558,164.581,77.699,164.309,77.699z"/>
	<g>
		<g>
			<path fill="#3C3C3C" d="M102.001,192.918l-0.489-19.59L190,121.421v19.729L102.001,192.918z M104.832,175.123l0.336,12.316
				L187,139.332v-12.361L104.832,175.123z"/>
			
				<rect x="52.143" y="46.247" transform="matrix(-0.503 -0.8643 0.8643 -0.503 -1.8962 190.188)" fill="#3C3C3C" width="3.178" height="98.784"/>
			
				<rect x="90.035" y="95.326" transform="matrix(-0.8638 -0.5039 0.5039 -0.8638 218.3849 252.8731)" fill="#3C3C3C" width="106.681" height="3.179"/>
			<g>
				<polygon fill="#3C3C3C" points="96.991,162.275 95.385,162.271 37.715,128.371 36.932,127 36.932,121.417 40.11,121.417 
					40.11,126.092 96.196,159.061 159.521,122.223 159.521,117.551 162.699,117.551 162.699,123.135 161.91,124.508 				"/>
				<path fill="#3C3C3C" d="M96.991,156.688l-1.605-0.002l-57.67-33.897l0.005-2.743l64.917-37.769l1.604,0.003l57.674,33.901
					l-0.006,2.742L96.991,156.688z M41.667,121.426l54.528,32.049l61.767-35.933L103.434,85.49L41.667,121.426z"/>
				<rect x="96" y="154" fill="#3C3C3C" width="3" height="7"/>
			</g>
			<g>
				<g>
					<path fill="#FAFAFA" d="M175.148,98.184v33.976l13.799-8.107V90.077L175.148,98.184z"/>
					<path fill="#3C3C3C" d="M175.953,133.529l-2.395-1.37V98.184l0.784-1.37l13.8-8.106l2.395,1.37v33.975l-0.783,1.372
						L175.953,133.529z M176.738,99.093v30.29l10.621-6.24V92.854L176.738,99.093z"/>
				</g>
				<g>
					<path fill="#FAFAFA" d="M168.16,94.071l6.988,4.075l13.799-8.109l-6.986-4.074L168.16,94.071z"/>
					<path fill="#3C3C3C" d="M174.348,99.52l-6.988-4.076l-0.004-2.742l13.802-8.108l1.604-0.003l6.988,4.075l0.004,2.743
						l-13.801,8.109L174.348,99.52z M171.307,94.066l3.84,2.238l10.656-6.262l-3.838-2.238L171.307,94.066z"/>
				</g>
				<g>
					<path fill="#FAFAFA" d="M168.16,94.071v33.974l7.07,4.114V98.184L168.16,94.071z"/>
					<path fill="#3C3C3C" d="M174.432,133.533l-7.07-4.115l-0.788-1.373V94.071l2.387-1.373l7.072,4.111l0.788,1.374v33.976
						L174.432,133.533z M169.75,127.131l3.891,2.266V99.099l-3.891-2.266V127.131z"/>
				</g>
			</g>
			<g>
				<g>
					<path fill="#FAFAFA" d="M89.588,47.997v33.976l13.801-8.106V39.893L89.588,47.997z"/>
					<path fill="#3C3C3C" d="M90.395,83.344L88,81.973V47.997l0.784-1.369l13.798-8.106l2.395,1.371v33.974l-0.783,1.371
						L90.395,83.344z M91.177,48.907v30.291l10.622-6.241V42.669L91.177,48.907z"/>
				</g>
				<g>
					<path fill="#FAFAFA" d="M82.601,43.887l6.987,4.074l13.801-8.105l-6.991-4.077L82.601,43.887z"/>
					<path fill="#3C3C3C" d="M88.789,49.333L81.8,45.26l-0.006-2.743l13.799-8.107l1.607-0.004l6.989,4.077l0.004,2.743
						L90.395,49.33L88.789,49.333z M85.745,43.881l3.841,2.239l10.656-6.26l-3.84-2.239L85.745,43.881z"/>
				</g>
				<g>
					<path fill="#FAFAFA" d="M82.601,43.887v33.975l7.065,4.111V47.997L82.601,43.887z"/>
					<path fill="#3C3C3C" d="M88.869,83.348l-7.067-4.113l-0.789-1.373V43.887l2.387-1.373l7.068,4.11l0.788,1.373v33.976
						L88.869,83.348z M84.19,76.947l3.888,2.263V48.912l-3.888-2.263V76.947z"/>
				</g>
			</g>
			<g>
				<g>
					<path fill="#FAFAFA" d="M88.75,25.169V52.02l18.663-10.688V14.481L88.75,25.169z"/>
					<path fill="#3C3C3C" d="M89.54,53.4l-2.379-1.381v-26.85l0.799-1.38l18.664-10.687l2.379,1.379v26.851l-0.799,1.379L89.54,53.4
						z M90.338,26.091v23.188l15.486-8.869V17.222L90.338,26.091z"/>
				</g>
				<g>
					<path fill="#FAFAFA" d="M78.574,19.152l10.176,5.981l18.663-10.692L97.239,8.462L78.574,19.152z"/>
					<path fill="#3C3C3C" d="M89.54,26.513l-1.596-0.009l-10.174-5.98l0.014-2.75L96.45,7.082l1.596,0.01l10.173,5.979l-0.016,2.749
						L89.54,26.513z M81.741,19.17l7.02,4.126l15.488-8.872l-7.02-4.124L81.741,19.17z"/>
				</g>
				<g>
					<path fill="#FAFAFA" d="M78.574,19.152v26.852l10.255,6.016V25.169L78.574,19.152z"/>
					<path fill="#3C3C3C" d="M88.025,53.391L77.77,47.374l-0.785-1.37V19.152l2.394-1.37l10.255,6.017l0.785,1.37V52.02
						L88.025,53.391z M80.163,45.095l7.077,4.151V26.078l-7.077-4.15V45.095z"/>
				</g>
			</g>
			<g>
				<g>
					<path fill="#FAFAFA" d="M173.232,75.336v13.688l10.646-6.063V69.273L173.232,75.336z"/>
					<path fill="#3C3C3C" d="M174.02,90.406l-2.377-1.382V75.336l0.803-1.382l10.646-6.062l2.377,1.381v13.688l-0.803,1.383
						L174.02,90.406z M174.822,76.259V86.29l7.469-4.252v-10.03L174.822,76.259z"/>
				</g>
				<g>
					<path fill="#FAFAFA" d="M92.994,27.793l80.238,47.505l10.646-6.064l-80.238-47.507L92.994,27.793z"/>
					<path fill="#3C3C3C" d="M174.02,76.678l-1.598-0.014L92.184,29.161l0.022-2.749l10.649-6.066l1.596,0.014l80.236,47.507
						l-0.021,2.747L174.02,76.678z M96.159,27.819l77.089,45.64l7.467-4.253l-77.09-45.642L96.159,27.819z"/>
				</g>
				<g>
					<path fill="#FAFAFA" d="M92.994,27.793V41.48l80.318,47.544V75.336L92.994,27.793z"/>
					<path fill="#3C3C3C" d="M172.502,90.392L92.184,42.849l-0.779-1.368V27.793l2.399-1.367l80.319,47.543l0.779,1.367v13.688
						L172.502,90.392z M94.583,40.574l77.142,45.663v-9.994L94.583,30.58V40.574z"/>
				</g>
			</g>
			<g>
				<g>
					<path fill="#FAFAFA" d="M174.311,75.252v26.852l18.662-10.688v-26.85L174.311,75.252z"/>
					<path fill="#3C3C3C" d="M175.1,103.482l-2.379-1.379V75.252l0.801-1.379l18.662-10.688l2.379,1.38v26.85l-0.799,1.38
						L175.1,103.482z M175.898,76.174v23.188l15.485-8.869V67.305L175.898,76.174z"/>
				</g>
				<g>
					<path fill="#FAFAFA" d="M164.137,69.233l10.174,5.979l18.662-10.687l-10.17-5.98L164.137,69.233z"/>
					<path fill="#3C3C3C" d="M175.1,76.592l-1.594-0.01l-10.174-5.979l0.016-2.75l18.664-10.688l1.596,0.011l10.172,5.979
						l-0.016,2.749L175.1,76.592z M167.305,69.252l7.016,4.123l15.488-8.869l-7.018-4.123L167.305,69.252z"/>
				</g>
				<g>
					<path fill="#FAFAFA" d="M164.137,69.233v26.85l10.252,6.021V75.252L164.137,69.233z"/>
					<path fill="#3C3C3C" d="M173.584,103.475l-10.252-6.021l-0.785-1.37v-26.85l2.395-1.371l10.252,6.02l0.783,1.37v26.852
						L173.584,103.475z M165.725,95.173l7.074,4.155V76.161l-7.074-4.151V95.173z"/>
				</g>
			</g>
			<g>
				<g>
					<path fill="#FAFAFA" d="M125.318,21.948v27.534l20.584,11.781v-27.53L125.318,21.948z"/>
					<path fill="#3C3C3C" d="M145.111,62.645l-20.584-11.783l-0.799-1.379V21.948l2.381-1.38l20.582,11.785l0.799,1.38v27.53
						L145.111,62.645z M126.906,48.56l17.406,9.964V34.655l-17.406-9.968V48.56z"/>
				</g>
				<g>
					<path fill="#FAFAFA" d="M113.977,28.433v43.986l20.58,11.789V40.217L113.977,28.433z"/>
					<path fill="#3C3C3C" d="M133.766,85.588l-20.58-11.79l-0.799-1.379V28.433l2.379-1.38l20.582,11.785l0.797,1.379v43.991
						L133.766,85.588z M115.564,71.496l17.401,9.971V41.139l-17.401-9.966V71.496z"/>
				</g>
				<g>
					<polygon fill="#FAFAFA" points="157.289,27.097 136.709,15.312 125.521,21.887 125.365,21.8 114.146,28.389 134.729,40.177 
						145.911,33.603 146.073,33.69 					"/>
					<path fill="#3C3C3C" d="M133.938,41.557l-20.58-11.788l-0.016-2.75l11.219-6.589l0.31-0.003l11.034-6.485l1.596-0.009
						l20.58,11.785l0.016,2.749l-11.216,6.594l-0.319,0.005l-11.026,6.481L133.938,41.557z M117.314,28.372l17.401,9.967
						l10.39-6.108l0.319-0.004l8.697-5.111l-17.403-9.966l-10.394,6.108l-0.31,0.003L117.314,28.372z"/>
				</g>
				<g>
					<polygon fill="#FAFAFA" points="145,33.733 145,33.583 133,40.217 133,84.208 145,77.569 145,61.264 158,52.852 158,27.097 
											"/>
					<path fill="#3C3C3C" d="M133.45,85.617L131,84.208V40.217l0.979-1.409l12.775-6.634l0.165,0.08l12.669-6.566L160,27.097v25.755
						l-0.855,1.325L147,62.118v15.451l-0.848,1.409L133.45,85.617z M135,41.181v40.404l8-4.978V61.264l1.355-1.324L157,51.998
						v-22.28l-10.549,5.425l0.068-0.08L135,41.181z"/>
				</g>
			</g>
		</g>
		<path fill="#3C3C3C" d="M133.326,34.01c-0.863,0-1.721-0.35-2.348-1.035c-0.312-0.338-3.019-3.449-2.791-8.319
			c0.188-4.073,2.334-8.007,6.381-11.692c6.772-6.164,13.559-5.719,17.281-2.541c3.776,3.228,4.312,8.685,1.301,13.271
			c-0.965,1.467-2.934,1.873-4.402,0.911c-1.467-0.965-1.874-2.935-0.911-4.402c1.241-1.886,1.194-3.827-0.116-4.946
			c-1.602-1.368-4.965-1.153-8.871,2.405c-2.754,2.51-4.207,4.96-4.312,7.288c-0.105,2.236,1.121,3.725,1.134,3.739
			c1.185,1.295,1.093,3.307-0.203,4.489C134.857,33.734,134.092,34.01,133.326,34.01z"/>
	</g>
	<polygon fill="#3C3C3C" points="102.152,191.766 8,137.012 8,118.352 103.572,174.049 101.654,176.793 11,123.895 11,135.188 
		103.443,189.021 	"/>
	<g>
		<g>
			<path fill="#FAFAFA" d="M57.947,89.365v13.689l10.645,6.062V95.431L57.947,89.365z"/>
			<path fill="#3C3C3C" d="M67.804,110.499l-10.645-6.063l-0.802-1.381V89.365l2.375-1.38l10.646,6.064l0.802,1.381v13.687
				L67.804,110.499z M59.536,102.131l7.467,4.253v-10.03L59.536,92.1V102.131z"/>
		</g>
		<g>
			<path fill="#FAFAFA" d="M118.322,53.343L57.947,89.326l10.645,6.064l60.377-35.984L118.322,53.343z"/>
			<path fill="#3C3C3C" d="M67.804,96.771L57.16,90.707l-0.026-2.747l60.376-35.983l1.6-0.015l10.646,6.063l0.025,2.746
				L69.405,96.756L67.804,96.771z M61.103,89.295l7.47,4.257l57.239-34.114l-7.473-4.256L61.103,89.295z"/>
		</g>
		<g>
			<path fill="#FAFAFA" d="M68.512,95.431v13.687l60.457-36.022v-13.69L68.512,95.431z"/>
			<path fill="#3C3C3C" d="M69.326,110.482l-2.402-1.365V95.431l0.776-1.366l60.457-36.023l2.401,1.365v13.688l-0.776,1.366
				L69.326,110.482z M70.102,96.334v9.986l57.279-34.128v-9.989L70.102,96.334z"/>
		</g>
	</g>
	<g>
		<g>
			<g>
				<path fill="#FAFAFA" d="M103.6,141.443v33.977l13.801-8.105v-33.977L103.6,141.443z"/>
				<path fill="#3C3C3C" d="M104.406,176.791l-2.395-1.371v-33.977l0.782-1.371l13.802-8.104l2.395,1.369v33.978l-0.783,1.369
					L104.406,176.791z M105.189,142.354v30.291l10.623-6.238v-30.291L105.189,142.354z"/>
			</g>
			<g>
				<path fill="#FAFAFA" d="M96.612,137.33l6.988,4.077L117.4,133.3l-6.986-4.075L96.612,137.33z"/>
				<path fill="#3C3C3C" d="M102.801,142.779l-6.989-4.076l-0.005-2.742l13.802-8.105l1.604-0.004l6.986,4.074l0.006,2.744
					l-13.802,8.107L102.801,142.779z M99.758,137.327l3.84,2.237l10.655-6.26l-3.836-2.238L99.758,137.327z"/>
			</g>
			<g>
				<path fill="#FAFAFA" d="M96.612,137.33v33.977l7.072,4.113v-33.977L96.612,137.33z"/>
				<path fill="#3C3C3C" d="M102.883,176.795l-7.069-4.113l-0.791-1.375V137.33l2.39-1.373l7.069,4.113l0.789,1.373v33.977
					L102.883,176.795z M98.202,170.393l3.892,2.266v-30.301l-3.892-2.264V170.393z"/>
			</g>
		</g>
		<g>
			<g>
				<path fill="#FAFAFA" d="M18.042,91.26v33.975l13.799-8.105V83.154L18.042,91.26z"/>
				<path fill="#3C3C3C" d="M18.846,126.605l-2.394-1.371V91.26l0.783-1.371l13.799-8.104l2.394,1.369v33.974l-0.783,1.371
					L18.846,126.605z M19.63,92.169v30.29l10.62-6.24V85.931L19.63,92.169z"/>
			</g>
			<g>
				<path fill="#FAFAFA" d="M11.051,87.148l6.99,4.073l13.799-8.105l-6.988-4.075L11.051,87.148z"/>
				<path fill="#3C3C3C" d="M17.241,92.596l-6.989-4.073l-0.006-2.743l13.802-8.109l1.605-0.003l6.988,4.075l0.004,2.743
					l-13.799,8.107L17.241,92.596z M14.198,87.143l3.84,2.239l10.656-6.262l-3.838-2.238L14.198,87.143z"/>
			</g>
			<g>
				<path fill="#FAFAFA" d="M11.051,87.148v33.974l7.069,4.112V91.26L11.051,87.148z"/>
				<path fill="#3C3C3C" d="M17.321,126.607l-7.068-4.111l-0.79-1.374V87.148l2.389-1.373l7.068,4.11l0.79,1.374v33.976
					L17.321,126.607z M12.641,120.208l3.891,2.265V92.174l-3.891-2.264V120.208z"/>
			</g>
		</g>
		<g>
			<g>
				<path fill="#FAFAFA" d="M17.201,68.431v26.851l18.665-10.688v-26.85L17.201,68.431z"/>
				<path fill="#3C3C3C" d="M17.992,96.661l-2.38-1.38v-26.85l0.8-1.379l18.663-10.688l2.379,1.38v26.85l-0.799,1.379L17.992,96.661
					z M18.79,69.353V92.54l15.486-8.869V60.483L18.79,69.353z"/>
			</g>
			<g>
				<path fill="#FAFAFA" d="M7.027,62.412l10.174,5.98l18.665-10.689l-10.174-5.979L7.027,62.412z"/>
				<path fill="#3C3C3C" d="M17.992,69.773l-1.596-0.01l-10.175-5.98l0.016-2.75l18.665-10.689l1.596,0.009l10.173,5.979
					l-0.016,2.75L17.992,69.773z M10.192,62.432l7.021,4.125L32.7,57.686l-7.02-4.125L10.192,62.432z"/>
			</g>
			<g>
				<path fill="#FAFAFA" d="M7.027,62.412v26.851l10.254,6.019V68.431L7.027,62.412z"/>
				<path fill="#3C3C3C" d="M16.477,96.652L6.223,90.635l-0.785-1.372V62.412l2.393-1.37l10.253,6.018l0.786,1.371v26.851
					L16.477,96.652z M8.616,88.354l7.076,4.152V69.34l-7.076-4.153V88.354z"/>
			</g>
		</g>
		<g>
			<g>
				<path fill="#FAFAFA" d="M101.686,118.598v13.689l10.646-6.064v-13.688L101.686,118.598z"/>
				<path fill="#3C3C3C" d="M102.473,133.668l-2.375-1.381v-13.689l0.802-1.381l10.646-6.062l2.377,1.382v13.687l-0.803,1.381
					L102.473,133.668z M103.275,119.521v10.029l7.469-4.254v-10.029L103.275,119.521z"/>
			</g>
			<g>
				<path fill="#FAFAFA" d="M21.446,71.055l80.24,47.503l10.646-6.062L32.091,64.989L21.446,71.055z"/>
				<path fill="#3C3C3C" d="M102.473,119.939l-1.596-0.015L20.635,72.422l0.023-2.748l10.646-6.065l1.598,0.014l80.241,47.505
					l-0.022,2.749L102.473,119.939z M24.61,71.08l77.091,45.643l7.467-4.254L32.075,66.826L24.61,71.08z"/>
			</g>
			<g>
				<path fill="#FAFAFA" d="M21.446,71.055v13.687l80.32,47.546V118.6L21.446,71.055z"/>
				<path fill="#3C3C3C" d="M100.955,133.652l-80.32-47.543l-0.777-1.368V71.055l2.398-1.366l80.318,47.542l0.779,1.367v13.689
					L100.955,133.652z M23.036,83.836l77.141,45.662v-9.994L23.036,73.842V83.836z"/>
			</g>
		</g>
		<g>
			<g>
				<path fill="#FAFAFA" d="M102.764,118.514v26.854l18.664-10.691v-26.851L102.764,118.514z"/>
				<path fill="#3C3C3C" d="M103.553,146.744l-2.379-1.378v-26.853l0.801-1.38l18.662-10.69l2.381,1.381v26.851l-0.801,1.38
					L103.553,146.744z M104.354,119.436v23.188l15.484-8.87v-23.188L104.354,119.436z"/>
			</g>
			<g>
				<path fill="#FAFAFA" d="M92.588,112.495l10.176,5.979l18.663-10.688l-10.172-5.979L92.588,112.495z"/>
				<path fill="#3C3C3C" d="M103.553,119.854l-1.594-0.01l-10.175-5.979l0.016-2.749l18.667-10.688l1.594,0.009l10.172,5.979
					l-0.016,2.749L103.553,119.854z M95.755,112.514l7.021,4.122l15.486-8.868l-7.019-4.123L95.755,112.514z"/>
			</g>
			<g>
				<path fill="#FAFAFA" d="M92.588,112.495v26.849l10.251,6.022v-26.853L92.588,112.495z"/>
				<path fill="#3C3C3C" d="M102.033,146.734l-10.25-6.021L91,139.344v-26.849l2.394-1.371l10.252,6.021l0.783,1.369v26.854
					L102.033,146.734z M94.178,138.436l7.072,4.153v-23.166l-7.072-4.151V138.436z"/>
			</g>
		</g>
	</g>
</g>
</svg>
