<?xml version="1.0" encoding="utf-8"?>
<!-- Generator: Adobe Illustrator 16.0.0, SVG Export Plug-In . SVG Version: 6.00 Build 0)  -->
<!DOCTYPE svg PUBLIC "-//W3C//DTD SVG 1.1//EN" "http://www.w3.org/Graphics/SVG/1.1/DTD/svg11.dtd">
<svg version="1.1" id="Layer_1" xmlns="http://www.w3.org/2000/svg" xmlns:xlink="http://www.w3.org/1999/xlink" x="0px" y="0px"
	 width="200px" height="200px" viewBox="0 0 200 200" enable-background="new 0 0 200 200" xml:space="preserve">
<g>
	<g>
		<g>
			<path fill="#F5F5F5" d="M109.747,167.312l7.623,4.444l70.437-41.018l-7.623-4.443L109.747,167.312z"/>
			<path fill="#3C3C3C" d="M117.771,172.445h-0.801l-7.623-4.447v-1.371l70.437-41.016h0.802l7.621,4.443v1.372L117.771,172.445z
				 M111.325,167.312l6.045,3.524l68.856-40.099l-6.043-3.522L111.325,167.312z"/>
		</g>
		<g>
			<path fill="#FAFAFA" d="M117.37,171.801v5.359l70.437-41.016v-5.359L117.37,171.801z"/>
			<path fill="#3C3C3C" d="M117.771,177.846l-1.195-0.686v-5.359l0.395-0.686l70.438-41.018l1.193,0.688v5.359l-0.395,0.686
				L117.771,177.846z M118.165,172.258v3.52l68.847-40.09v-3.521L118.165,172.258z"/>
		</g>
		<g>
			<path fill="#FAFAFA" d="M109.747,167.312v5.36l7.708,4.486V171.8L109.747,167.312z"/>
			<path fill="#3C3C3C" d="M117.055,177.846l-7.707-4.486l-0.396-0.686v-5.361l1.194-0.686l7.707,4.488l0.396,0.686v5.359
				L117.055,177.846z M110.542,172.217l6.118,3.561v-3.52l-6.118-3.562V172.217z"/>
		</g>
	</g>
	<g>
		<g>
			<path fill="#FAFAFA" d="M29.922,122.639l-1.165,0.68v5.357l5.797-3.377"/>
			<polygon fill="#3C3C3C" points="29.157,129.361 27.962,128.676 27.962,123.318 28.355,122.633 29.521,121.953 30.321,123.324 
				29.551,123.775 29.551,127.293 34.153,124.613 34.954,125.986 			"/>
		</g>
		<g>
			<path fill="#FAFAFA" d="M21.133,118.83v5.357l7.708,4.487v-5.356L21.133,118.83z"/>
			<path fill="#3C3C3C" d="M28.44,129.361l-7.707-4.488l-0.395-0.686v-5.357l1.195-0.686l7.708,4.487l0.394,0.687v5.356
				L28.44,129.361z M21.928,123.73l6.118,3.562v-3.519l-6.118-3.562V123.73z"/>
		</g>
	</g>
	<g>
		<polygon fill="#FAFAFA" points="116.047,172.365 187,131.146 187,77.654 127.256,112.398 106.605,153.1 		"/>
		<path fill="#3C3C3C" d="M117.035,173.74l-2.223-0.676l-9.441-19.267l0.01-1.418l20.65-40.7l0.619-0.656L186.1,76.278l1.9,1.376
			v53.493l-0.307,1.377L117.035,173.74z M108.573,153.111l7.944,17.024L185,130.23V80.41l-56.745,33.126L108.573,153.111z"/>
	</g>
	<polygon fill="#3C3C3C" points="20.654,118.945 11.215,99.678 11.227,98.26 31.875,57.56 32.501,56.9 92.994,22.154 94.578,24.91 
		34.495,59.421 14.418,98.991 23.509,117.545 	"/>
	<polygon fill="#3C3C3C" points="146.241,78.31 145.172,76.931 150.036,74.056 98.566,44.53 92.724,47.866 91.916,46.025 98.101,42 
		98.893,42 153,73.368 153,74.746 	"/>
	<path fill="#3C3C3C" d="M91.366,129.801L38.372,99.359l-0.624-2.097L52.17,68.833l0.626-0.467L92.067,46h1.583L146,76.061v2.756
		l-38.537,22.322l-14.049,28.002L91.366,129.801z M41.264,97.353l50.234,28.858l13.666-26.933l0.625-0.659l36.873-21.18
		L92.858,48.83L54.791,70.695L41.264,97.353z"/>
	<g>
		<line fill="none" x1="116.337" y1="172.365" x2="22.082" y2="118.246"/>
		
			<rect x="14.874" y="143.712" transform="matrix(-0.8672 -0.4979 0.4979 -0.8672 56.8907 305.7731)" fill="#3C3C3C" width="108.681" height="3.179"/>
	</g>
	<g>
		<line fill="none" x1="107.312" y1="154.326" x2="13.062" y2="100.204"/>
		
			<rect x="5.841" y="125.678" transform="matrix(-0.8672 -0.498 0.498 -0.8672 48.9982 267.6018)" fill="#3C3C3C" width="108.686" height="3.178"/>
	</g>
	<g>
		<line fill="none" x1="127.611" y1="112.605" x2="33.357" y2="58.486"/>
		
			<rect x="26.137" y="83.96" transform="matrix(-0.8672 -0.498 0.498 -0.8672 107.6699 199.8149)" fill="#3C3C3C" width="108.689" height="3.178"/>
	</g>
	<g>
		<line fill="none" x1="187.369" y1="77.654" x2="93.118" y2="23.532"/>
		
			<rect x="85.899" y="49.008" transform="matrix(-0.8672 -0.498 0.498 -0.8672 236.6632 164.3144)" fill="#3C3C3C" width="108.688" height="3.179"/>
	</g>
	<path fill="#3C3C3C" d="M108.16,139.32l-10.715-6.766l-0.573-2.054l11.233-22.549l2.192-0.685l11.234,6.199l0.647,2.111
		l-11.757,23.117L108.16,139.32z M100.357,130.635l8.026,5.068l10.268-20.193l-8.438-4.656L100.357,130.635z"/>
	<g>
		<path fill="#FAFAFA" d="M137.843,100.088c-3.188,1.842-8.366,1.832-11.569-0.021c-3.207-1.849-3.225-4.841-0.039-6.682
			c3.187-1.838,8.367-1.827,11.572,0.023C141.014,95.258,141.027,98.249,137.843,100.088z"/>
		<path fill="#3C3C3C" d="M132.09,103.051c-2.469,0-4.816-0.57-6.611-1.605c-2.07-1.196-3.211-2.876-3.211-4.737
			c0-1.848,1.125-3.516,3.174-4.698c1.771-1.021,4.094-1.584,6.543-1.584c2.472,0,4.822,0.57,6.617,1.607
			c2.069,1.194,3.209,2.875,3.209,4.734c0,1.847-1.127,3.517-3.172,4.698C136.865,102.488,134.541,103.051,132.09,103.051z
			 M131.984,93.603c-1.873,0-3.68,0.422-4.955,1.16c-1.006,0.581-1.584,1.29-1.584,1.944c0,0.667,0.592,1.39,1.621,1.983
			c2.588,1.496,7.412,1.506,9.981,0.02c1.007-0.58,1.584-1.288,1.584-1.943c0-0.666-0.59-1.387-1.62-1.981
			C135.711,94.033,133.878,93.603,131.984,93.603z"/>
	</g>
	<g>
		<path fill="#FAFAFA" d="M137.843,96.706c-3.188,1.841-8.366,1.83-11.569-0.021c-3.207-1.85-3.225-4.842-0.039-6.683
			c3.187-1.839,8.367-1.827,11.572,0.023C141.014,91.875,141.027,94.867,137.843,96.706z"/>
		<path fill="#3C3C3C" d="M132.088,99.669c-2.468,0-4.814-0.572-6.609-1.608c-2.07-1.194-3.211-2.877-3.211-4.736
			c0-1.849,1.125-3.517,3.174-4.698c1.771-1.021,4.094-1.585,6.543-1.585c2.472,0,4.822,0.57,6.617,1.608
			c2.039,1.176,3.209,2.9,3.209,4.734c0,1.848-1.127,3.517-3.172,4.697C136.865,99.103,134.539,99.669,132.088,99.669z
			 M131.984,90.22c-1.873,0-3.68,0.421-4.955,1.159c-1.006,0.582-1.584,1.291-1.584,1.945c0,0.666,0.592,1.389,1.621,1.983
			c2.588,1.496,7.412,1.507,9.981,0.021c1.007-0.58,1.584-1.29,1.584-1.944c0-0.665-0.59-1.389-1.618-1.982
			C135.711,90.65,133.878,90.22,131.984,90.22z"/>
	</g>
</g>
</svg>
