<?xml version="1.0" encoding="utf-8"?>
<!-- Generator: Adobe Illustrator 16.0.0, SVG Export Plug-In . SVG Version: 6.00 Build 0)  -->
<!DOCTYPE svg PUBLIC "-//W3C//DTD SVG 1.1//EN" "http://www.w3.org/Graphics/SVG/1.1/DTD/svg11.dtd">
<svg version="1.1" id="Layer_1" xmlns="http://www.w3.org/2000/svg" xmlns:xlink="http://www.w3.org/1999/xlink" x="0px" y="0px"
	 width="200px" height="200px" viewBox="0 0 200 200" enable-background="new 0 0 200 200" xml:space="preserve">
<g>
	<g>
		<g>
			<g>
				<path fill="#FAFAFA" d="M34.123,126.463v7.117l46.195-26.672v-7.116L34.123,126.463z"/>
				<path fill="#3C3C3C" d="M34.918,134.956l-2.384-1.376v-7.117l0.795-1.377l46.195-26.67l2.383,1.376v7.116l-0.794,1.377
					L34.918,134.956z M35.712,127.379v3.447l43.018-24.835v-3.447L35.712,127.379z"/>
			</g>
			<g>
				<path fill="#FAFAFA" d="M24,120.504l10.123,5.903l46.195-26.671l-10.122-5.903L24,120.504z"/>
				<path fill="#3C3C3C" d="M34.918,127.783l-1.596-0.004L23.2,121.878l0.005-2.751l46.196-26.671l1.596,0.004l10.123,5.903
					l-0.007,2.749L34.918,127.783z M27.166,120.51l6.961,4.061l43.026-24.84l-6.962-4.06L27.166,120.51z"/>
			</g>
			<g>
				<path fill="#FAFAFA" d="M24,120.504v7.116l10.238,5.96v-7.117L24,120.504z"/>
				<path fill="#3C3C3C" d="M33.677,134.54l-10.236-5.959l-0.553-0.961v-7.116l1.673-0.961l10.236,5.959l0.553,0.961v7.117
					L33.677,134.54z M25.112,126.98l8.013,4.664v-4.543l-8.013-4.662V126.98z"/>
			</g>
			<g>
				<path fill="#FAFAFA" d="M56.355,108.57c0.004,0.674-0.234,1.223-1.12,1.731c-1.771,1.021-5.383,0.955-7.167-0.073
					C47.133,109.688,46,108.907,46,108.2V45h10.134L56.355,108.57z"/>
				<path fill="#3C3C3C" d="M51.974,112.596c-1.613,0-3.275-0.359-4.405-1.011C46.035,110.695,45,109.463,45,108.2V44h12.717
					l0.228,64.857c0.007,1.357-0.637,2.231-1.916,2.967C54.963,112.441,53.522,112.596,51.974,112.596z M48,108.422
					c0,0,0.526,0.209,1.071,0.523c1.225,0.707,4.065,0.682,5.249-0.004c0.326-0.188,0.387,0.013,0.387-0.131L54.551,47H48v61.2
					V108.422z"/>
			</g>
		</g>
		<g>
			<g>
				<path fill="#FAFAFA" d="M118.343,177.312v7.117l46.196-26.672v-7.117L118.343,177.312z"/>
				<path fill="#3C3C3C" d="M119.137,185.807l-2.383-1.377v-7.117l0.794-1.375l46.197-26.672l2.383,1.377v7.116l-0.794,1.376
					L119.137,185.807z M119.932,178.229v3.446l43.02-24.834v-3.446L119.932,178.229z"/>
			</g>
			<g>
				<path fill="#FAFAFA" d="M108.221,171.354l10.122,5.903l46.196-26.671l-10.123-5.902L108.221,171.354z"/>
				<path fill="#3C3C3C" d="M119.137,178.634l-1.594-0.003l-10.124-5.902l0.007-2.75l46.196-26.672l1.594,0.002l10.123,5.903
					l-0.005,2.75L119.137,178.634z M111.387,171.359l6.961,4.06l43.024-24.839l-6.96-4.061L111.387,171.359z"/>
			</g>
			<g>
				<path fill="#FAFAFA" d="M108.221,171.354v7.117l10.237,5.959v-7.117L108.221,171.354z"/>
				<path fill="#3C3C3C" d="M117.896,185.391l-10.237-5.959l-0.552-0.961v-7.117l1.672-0.961l10.238,5.961l0.553,0.959v7.117
					L117.896,185.391z M109.332,177.83l8.014,4.665v-4.543l-8.014-4.664V177.83z"/>
			</g>
			<g>
				<path fill="#FAFAFA" d="M140.576,159.995c0.003,0.674-0.234,0.935-1.12,1.444c-1.771,1.021-4.995,0.812-6.776-0.217
					c-0.936-0.543-1.68-1.467-1.68-2.174V97h9.354L140.576,159.995z"/>
				<path fill="#3C3C3C" d="M136.193,163.445c-1.612,0-2.887-0.36-4.017-1.01c-1.532-0.89-2.178-2.123-2.178-3.387V95h11.938
					l0.228,64.784c0.007,1.354-0.64,2.194-1.917,2.929C139.184,163.33,137.742,163.445,136.193,163.445z M132,159.271
					c0,0,0.637,0.209,1.18,0.522c1.228,0.707,4.12,0.683,5.305-0.003c0.328-0.188,0.414,0.089,0.414-0.057L138.771,98H132v61.05
					V159.271z"/>
			</g>
		</g>
		<g>
			<g>
				<path fill="#FAFAFA" d="M184.354,88.222l-127.326-75.6c0,0-11.211,2.824-23.138,13.646
					c-12.258,11.12-17.852,21.315-17.852,39.294l127.104,75.601"/>
				<path fill="#3C3C3C" d="M142.605,142.527L15,66.467v-0.904c0-17.352,4.705-28.319,18.098-40.471
					C45.179,14.128,56.305,11.2,56.779,11.081l0.566-0.16l0.53,0.335l127.307,75.6l-1.633,2.732L56.814,14.34
					c-2.451,0.76-11.943,4.113-21.854,13.104C22.398,38.841,17.796,48.662,17.633,64.662l126.458,75.136L142.605,142.527z"/>
			</g>
			<path fill="#3C3C3C" d="M141,143.925v-2.762c0-19.673,7.193-30.07,18.66-40.472c12.078-10.96,22.92-13.89,23.376-14.008
				l1.964-0.52v32.203L141,143.925z M182,90.424c-4,1.337-11.592,4.902-20.1,12.62c-12.191,11.062-16.959,20.554-17.475,35.331
				L182,116.539V90.424z"/>
			<path fill="#3C3C3C" d="M116.841,126.796c-0.118-11.795,2.158-20.604,7.38-28.567l2.657,1.743
				c-4.854,7.401-6.97,15.665-6.858,26.792L116.841,126.796z"/>
			<path fill="#3C3C3C" d="M134.835,103.951l-2.655-1.745c2.606-3.977,5.973-7.817,10.584-12.088
				c11.973-11.085,23.202-14.126,23.676-14.249l0.809,3.072c-0.109,0.029-10.973,2.998-22.323,13.509
				C140.505,96.538,137.299,100.193,134.835,103.951z"/>
			<path fill="#3C3C3C" d="M35.938,80.373c-0.119-11.594,2.069-20.269,7.092-28.123l2.679,1.714
				c-4.671,7.301-6.705,15.438-6.593,26.38L35.938,80.373z"/>
			<path fill="#3C3C3C" d="M39.077,48.658l-2.678-1.713c2.64-4.127,6.094-8.108,10.87-12.532
				c11.972-11.085,23.205-14.128,23.676-14.249l0.809,3.071c-0.108,0.03-10.974,2.999-22.324,13.509
				C44.855,40.979,41.566,44.764,39.077,48.658z"/>
			
				<rect x="30.184" y="74.085" transform="matrix(-0.8636 -0.5042 0.5042 -0.8636 121.1328 184.1176)" fill="#3C3C3C" width="110.577" height="3.176"/>
			<path fill="none" stroke="#3C3C3C" stroke-width="2" stroke-miterlimit="10" d="M37.397,71.714"/>
			<g>
				<path fill="#FAFAFA" d="M39.564,64.628c0,0-7.564,3.601-7.564,8.905c0,5.306,0,64.99,0,64.99l80,47.746c0,0,0-59.684,0-64.988
					s6.999-10.232,6.999-10.232"/>
				<path fill="#3C3C3C" d="M114,189.079l-83-49.657V73.533c0-6.219,7.821-10.164,8.153-10.328l1.323,2.846
					C38.7,66.937,34,70.009,34,73.533v64.092l76,45.836v-62.18c0-6.069,7.721-11.319,8.041-11.539l2.104,2.613
					c-1.791,1.242-6.146,5.272-6.146,8.926L114,189.079L114,189.079z"/>
			</g>
			
				<rect x="32.587" y="85.818" transform="matrix(-0.8633 -0.5047 0.5047 -0.8633 103.8762 202.9503)" fill="#3C3C3C" width="93.673" height="3.178"/>
			
				<rect x="34.167" y="81.854" transform="matrix(-0.8633 -0.5048 0.5048 -0.8633 109.216 194.8846)" fill="#3C3C3C" width="93.678" height="1.589"/>
		</g>
	</g>
	
		<rect x="33.37" y="69.785" transform="matrix(-0.8636 -0.5041 0.5041 -0.8636 129.4818 176.8199)" fill="#3C3C3C" width="110.573" height="2.224"/>
	
		<rect x="162.754" y="99.462" transform="matrix(-0.5035 -0.864 0.864 -0.5035 140.7604 325.3841)" fill="#3C3C3C" width="2.224" height="45.577"/>
	
		<rect x="15.675" y="62.683" transform="matrix(-0.8636 -0.5042 0.5042 -0.8636 15.8388 131.8757)" fill="#3C3C3C" width="20.17" height="2.224"/>
	
		<rect x="116.776" y="125.295" transform="matrix(-0.8636 -0.5041 0.5041 -0.8636 180.9677 301.7638)" fill="#3C3C3C" width="29.04" height="2.225"/>
</g>
</svg>
