<?xml version="1.0" encoding="utf-8"?>
<!-- Generator: Adobe Illustrator 16.0.0, SVG Export Plug-In . SVG Version: 6.00 Build 0)  -->
<!DOCTYPE svg PUBLIC "-//W3C//DTD SVG 1.1//EN" "http://www.w3.org/Graphics/SVG/1.1/DTD/svg11.dtd">
<svg version="1.1" id="Layer_1" xmlns="http://www.w3.org/2000/svg" xmlns:xlink="http://www.w3.org/1999/xlink" x="0px" y="0px"
	 width="200px" height="200px" viewBox="0 0 200 200" enable-background="new 0 0 200 200" xml:space="preserve">
<g>
	<g>
		<g>
			<path fill="#3C3C3C" d="M98,190.67v-9.584l5.91-13.191l-0.199-0.246L187,118.463v19.008L98,190.67z M100,181.801v3.318l84-49.467
				V124.01l-78.592,46.132L100,181.801z"/>
			<polygon fill="#3C3C3C" points="12,137 8,137 8,129.708 15.318,116.536 15.79,116.312 97.375,68.865 98.995,71.612 
				18.086,118.836 12,130.515 			"/>
			
				<rect x="4.118" y="160.639" transform="matrix(0.8638 0.5039 -0.5039 0.8638 89.2446 -5.6417)" fill="#3C3C3C" width="101.877" height="3.179"/>
			
				<rect x="4.118" y="153.305" transform="matrix(0.8638 0.5039 -0.5039 0.8638 85.5478 -6.6411)" fill="#3C3C3C" width="101.876" height="3.18"/>
			
				<rect x="10.403" y="141.781" transform="matrix(0.8638 0.5039 -0.5039 0.8638 80.5956 -11.3777)" fill="#3C3C3C" width="101.876" height="3.18"/>
			
				<rect x="92.116" y="93.593" transform="matrix(0.8638 0.5039 -0.5039 0.8638 67.4474 -59.1155)" fill="#3C3C3C" width="101.876" height="3.177"/>
			<g>
				<polygon fill="#3C3C3C" points="98.958,157.667 97.353,157.663 42.278,125.288 41.495,123.918 41.495,118.585 44.673,118.585 
					44.673,123.008 98.164,154.453 158.57,119.311 158.57,114.892 161.748,114.892 161.748,120.225 160.959,121.598 				"/>
				<path fill="#3C3C3C" d="M98.958,152.331l-1.605-0.003l-55.075-32.374l0.007-2.743l61.999-36.069l1.604,0.003l55.076,32.376
					l-0.004,2.744L98.958,152.331z M46.231,118.592l51.933,30.525l58.846-34.234l-51.934-30.527L46.231,118.592z"/>
				<rect x="98" y="150" fill="#3C3C3C" width="2" height="6"/>
			</g>
			<g>
				<g>
					<path fill="#FFFFFF" d="M173.566,96.395v32.447l13.18-7.741V88.653L173.566,96.395z"/>
					<path fill="#3C3C3C" d="M174.371,130.212l-2.393-1.37V96.395l0.783-1.369l13.18-7.743l2.393,1.371v32.447l-0.783,1.371
						L174.371,130.212z M175.156,97.304v28.762l10-5.874V91.429L175.156,97.304z"/>
				</g>
				<g>
					<path fill="#FFFFFF" d="M166.895,92.467l6.672,3.892l13.18-7.741l-6.672-3.893L166.895,92.467z"/>
					<path fill="#3C3C3C" d="M172.766,97.732l-6.672-3.892l-0.006-2.744l13.18-7.742l1.605-0.003l6.674,3.893l0.004,2.743
						l-13.18,7.741L172.766,97.732z M170.039,92.463l3.525,2.055l10.037-5.896l-3.525-2.055L170.039,92.463z"/>
				</g>
				<g>
					<path fill="#FFFFFF" d="M166.895,92.467v32.447l6.75,3.928V96.395L166.895,92.467z"/>
					<path fill="#3C3C3C" d="M172.844,130.215l-6.75-3.927l-0.789-1.374V92.467l2.389-1.373l6.75,3.928l0.789,1.373v32.447
						L172.844,130.215z M168.482,123.999l3.572,2.08V97.309l-3.572-2.078V123.999z"/>
				</g>
			</g>
			<g>
				<g>
					<path fill="#FFFFFF" d="M91.856,48.468v32.447l13.177-7.742V40.727L91.856,48.468z"/>
					<path fill="#3C3C3C" d="M92.661,82.286l-2.394-1.371V48.468l0.783-1.371l13.178-7.741l2.395,1.371v32.446l-0.783,1.37
						L92.661,82.286z M93.445,49.377v28.762l10-5.875V43.503L93.445,49.377z"/>
				</g>
				<g>
					<path fill="#FFFFFF" d="M85.18,44.541l6.676,3.891l13.177-7.741l-6.674-3.892L85.18,44.541z"/>
					<path fill="#3C3C3C" d="M91.055,49.805l-6.677-3.891l-0.005-2.743l13.181-7.742l1.605-0.003l6.674,3.892l0.006,2.744
						l-13.179,7.739L91.055,49.805z M88.327,44.535l3.526,2.056l10.036-5.896l-3.526-2.056L88.327,44.535z"/>
				</g>
				<g>
					<path fill="#FFFFFF" d="M85.18,44.541v32.446l6.75,3.928V48.468L85.18,44.541z"/>
					<path fill="#3C3C3C" d="M91.13,82.288l-6.75-3.927l-0.789-1.374V44.541l2.388-1.374l6.75,3.927l0.79,1.374v32.447L91.13,82.288
						z M86.769,76.073l3.572,2.078V49.38l-3.572-2.077V76.073z"/>
				</g>
			</g>
			<g>
				<g>
					<path fill="#FFFFFF" d="M91.053,26.665v25.644L108.879,42.1V16.457L91.053,26.665z"/>
					<path fill="#3C3C3C" d="M91.843,53.688l-2.379-1.38V26.665l0.799-1.379l17.825-10.208l2.379,1.379V42.1l-0.799,1.38
						L91.843,53.688z M92.642,27.587v21.98l14.647-8.389v-21.98L92.642,27.587z"/>
				</g>
				<g>
					<path fill="#FFFFFF" d="M81.335,20.919l9.718,5.711l17.826-10.209l-9.717-5.712L81.335,20.919z"/>
					<path fill="#3C3C3C" d="M91.843,28.01L90.248,28l-9.718-5.711l0.017-2.75L98.371,9.33l1.597,0.01l9.716,5.71l-0.016,2.75
						L91.843,28.01z M84.5,20.937l6.563,3.855l14.647-8.39l-6.56-3.855L84.5,20.937z"/>
				</g>
				<g>
					<path fill="#FFFFFF" d="M81.335,20.919v25.643l9.795,5.747V26.665L81.335,20.919z"/>
					<path fill="#3C3C3C" d="M90.326,53.68l-9.794-5.749l-0.786-1.369V20.919l2.395-1.37l9.793,5.746l0.785,1.37v25.644
						L90.326,53.68z M82.925,45.651l6.615,3.883V27.575l-6.615-3.882V45.651z"/>
				</g>
			</g>
			<g>
				<g>
					<path fill="#FFFFFF" d="M171.736,74.577v13.071l10.17-5.791V68.784L171.736,74.577z"/>
					<path fill="#3C3C3C" d="M172.523,89.029l-2.375-1.381V74.577l0.801-1.383l10.168-5.791l2.377,1.381v13.073l-0.803,1.381
						L172.523,89.029z M173.326,75.5v9.414l6.988-3.98V71.52L173.326,75.5z"/>
				</g>
				<g>
					<path fill="#FFFFFF" d="M95.106,29.17l76.63,45.369l10.17-5.791l-76.633-45.369L95.106,29.17z"/>
					<path fill="#3C3C3C" d="M172.523,75.92l-1.596-0.014L94.296,30.537l0.023-2.749l10.168-5.79l1.596,0.013l76.631,45.369
						l-0.023,2.748L172.523,75.92z M98.271,29.196l73.481,43.506l6.988-3.98l-73.482-43.506L98.271,29.196z"/>
				</g>
				<g>
					<path fill="#FFFFFF" d="M95.106,29.17v13.072l76.707,45.406V74.577L95.106,29.17z"/>
					<path fill="#3C3C3C" d="M171.002,89.017L94.296,43.61l-0.779-1.368V29.17l2.399-1.367l76.707,45.406l0.779,1.368v13.071
						L171.002,89.017z M96.695,41.337l73.53,43.524v-9.379l-73.53-43.525V41.337z"/>
				</g>
			</g>
			<g>
				<g>
					<path fill="#FFFFFF" d="M172.768,74.495v25.645l17.824-10.209V64.288L172.768,74.495z"/>
					<path fill="#3C3C3C" d="M173.557,101.52l-2.379-1.38V74.495l0.801-1.379l17.822-10.209l2.379,1.381v25.643l-0.799,1.379
						L173.557,101.52z M174.357,75.417v21.98l14.645-8.389v-21.98L174.357,75.417z"/>
				</g>
				<g>
					<path fill="#FFFFFF" d="M163.051,68.748l9.717,5.71l17.824-10.208l-9.717-5.71L163.051,68.748z"/>
					<path fill="#3C3C3C" d="M173.557,75.838l-1.596-0.009l-9.717-5.712l0.016-2.749l17.826-10.207l1.596,0.008l9.715,5.711
						l-0.016,2.75L173.557,75.838z M166.217,68.765l6.561,3.855l14.648-8.389l-6.562-3.854L166.217,68.765z"/>
				</g>
				<g>
					<path fill="#FFFFFF" d="M163.051,68.748V94.39l9.789,5.75V74.495L163.051,68.748z"/>
					<path fill="#3C3C3C" d="M172.035,101.509l-9.791-5.75l-0.783-1.369V68.748l2.393-1.371l9.791,5.748l0.785,1.37v25.645
						L172.035,101.509z M164.639,93.48l6.611,3.882V75.405l-6.611-3.881V93.48z"/>
				</g>
			</g>
			<g>
				<g>
					<path fill="#FFFFFF" d="M125.977,23.588v26.296l19.658,11.253V34.844L125.977,23.588z"/>
					<path fill="#3C3C3C" d="M144.844,62.517l-19.658-11.254l-0.797-1.379V23.588l2.379-1.379l19.656,11.255l0.801,1.38v26.293
						L144.844,62.517z M127.566,48.962l16.479,9.436V35.766l-16.479-9.438V48.962z"/>
				</g>
				<g>
					<path fill="#FFFFFF" d="M115.146,29.781v42.008l19.652,11.258v-42.01L115.146,29.781z"/>
					<path fill="#3C3C3C" d="M134.01,84.427l-19.654-11.258l-0.799-1.38V29.781l2.379-1.379l19.654,11.255l0.799,1.38v42.01
						L134.01,84.427z M116.734,70.868l16.477,9.438V41.959l-16.477-9.438V70.868z"/>
				</g>
				<g>
					<polygon fill="#FFFFFF" points="156.346,28.507 136.691,17.253 126.008,23.53 125.859,23.448 115.146,29.741 134.799,40.997 
						145.482,34.718 145.635,34.804 					"/>
					<path fill="#3C3C3C" d="M134.01,42.378l-19.654-11.257l-0.016-2.751l10.715-6.294l0.295-0.003l10.537-6.192l1.596-0.008
						l19.654,11.254l0.014,2.749l-10.711,6.298l-0.303,0.002l-10.533,6.192L134.01,42.378z M118.312,29.724l16.475,9.438
						l9.889-5.813l0.303-0.003l8.201-4.82l-16.477-9.436l-9.891,5.812l-0.295,0.004L118.312,29.724z"/>
				</g>
				<g>
					<polygon fill="#FFFFFF" points="145,34.844 145,34.7 133,41.037 133,83.047 145,76.709 145,61.137 156,53.102 156,28.507 					
						"/>
					<path fill="#3C3C3C" d="M134.023,84.429L131,83.047v-42.01l1.449-1.381l11.445-6.337l0.288,0.073l10.722-6.268L157,28.507
						v24.595l-0.596,1.289L146,61.95v14.759l-0.828,1.38L134.023,84.429z M135,41.961v38.353l9-4.528V61.137l0.096-1.287L154,52.289
						V31.24l-8.477,4.983l-0.227-0.072L135,41.961z"/>
				</g>
			</g>
		</g>
		<path fill="#3C3C3C" d="M123,101.481c-1.316,0-2-1.068-2-2.383V86.386c0-1.316,0.684-2.384,2-2.384s2,1.067,2,2.384v12.713
			C125,100.413,124.316,101.481,123,101.481z"/>
		<g>
			<path fill="#FFFFFF" d="M128.918,84.435c0.002,0.723-0.25,1.35-1.199,1.896c-1.896,1.095-5.18,1.043-7.088-0.059
				c-1.002-0.579-1.631-1.394-1.631-2.151V52.025c0,0,1.814-3.401,4.955-3.401c3.26,0,4.777,3.401,4.777,3.401L128.918,84.435z"/>
			<path fill="#3C3C3C" d="M124.418,88.715c-1.576,0-3.096-0.378-4.287-1.066c-1.357-0.785-2.131-2.069-2.131-3.527V51.686
				l0.135-0.31c0.078-0.178,1.988-4.342,6.115-4.342c4.283,0,6.028,4.219,6.103,4.396l0.116,0.285l0.039,32.717
				c0.006,1.406-0.665,2.51-1.993,3.275C127.39,88.355,125.934,88.715,124.418,88.715z M121,52.413v31.708
				c0,0.214,0.148,0.495,0.633,0.776c1.363,0.79,3.805,0.817,5.127,0.057c0.404-0.232,0.24-0.32,0.24-0.513V52.381
				c0-0.611-1.24-2.168-2.98-2.168C122.369,50.213,122,51.78,121,52.413z"/>
		</g>
		<path fill="#3C3C3C" d="M124.219,58.092c-1.623,0-3.26-1.107-4.482-1.812c-1.607-0.934-2.529-2.28-2.529-4.28h3.178
			c0.031,0,0.316,1.165,0.941,1.528c1.438,0.828,4.211,1.236,5.6,0.432c0.404-0.232,0.404-0.131,0.402-0.324l3.18,0.082
			c0.004,1.409-0.666,2.56-1.996,3.326C127.357,57.71,125.795,58.092,124.219,58.092z"/>
		<path fill="#3C3C3C" d="M123.895,54.522c-1.539,0-2.891-1.121-3.137-2.689c-0.451-2.89-4.105-28.504,6.02-37.726
			c7.127-6.49,17.672-5.271,23.359-0.419c3.902,3.333,4.834,7.903,2.377,11.644c-0.963,1.469-2.934,1.876-4.4,0.913
			c-1.467-0.965-1.877-2.935-0.912-4.4c0.643-0.98,0.242-2.098-1.193-3.322c-3.168-2.703-10.125-4.107-14.949,0.284
			c-6.443,5.866-5.023,25.598-4.02,32.048c0.271,1.734-0.916,3.359-2.65,3.631C124.221,54.51,124.057,54.522,123.895,54.522z"/>
	</g>
	<path fill="#3C3C3C" d="M115.143,49.045c-0.137,0-0.273-0.032-0.4-0.107L94.708,37.302c-0.381-0.221-0.51-0.708-0.289-1.086
		c0.22-0.384,0.707-0.51,1.086-0.289l20.036,11.637c0.379,0.221,0.51,0.708,0.289,1.086
		C115.682,48.904,115.416,49.045,115.143,49.045z"/>
	<path fill="#3C3C3C" d="M163.051,76.87c-0.137,0-0.273-0.034-0.4-0.107l-18.045-10.481c-0.381-0.22-0.51-0.708-0.289-1.085
		c0.221-0.384,0.709-0.51,1.086-0.289l18.047,10.481c0.381,0.22,0.508,0.706,0.287,1.085C163.59,76.728,163.322,76.87,163.051,76.87
		z"/>
	<g>
		
			<rect x="80.422" y="69.845" transform="matrix(0.5041 0.8637 -0.8637 0.5041 131.1018 -17.9912)" fill="#3C3C3C" width="1.589" height="70.63"/>
		
			<rect x="88.368" y="74.612" transform="matrix(0.5048 0.8632 -0.8632 0.5048 139.048 -22.5311)" fill="#3C3C3C" width="1.588" height="70.631"/>
		
			<rect x="96.313" y="79.38" transform="matrix(0.5036 0.8639 -0.8639 0.5036 147.2923 -26.9597)" fill="#3C3C3C" width="1.588" height="70.629"/>
		
			<rect x="104.259" y="84.146" transform="matrix(0.5043 0.8635 -0.8635 0.5043 155.2277 -31.5005)" fill="#3C3C3C" width="1.588" height="70.63"/>
		
			<rect x="112.202" y="88.915" transform="matrix(0.5041 0.8637 -0.8637 0.5041 163.3319 -35.9818)" fill="#3C3C3C" width="1.589" height="70.628"/>
		
			<rect x="120.149" y="93.68" transform="matrix(0.5048 0.8632 -0.8632 0.5048 171.247 -40.5232)" fill="#3C3C3C" width="1.588" height="70.631"/>
	</g>
</g>
</svg>
