<?xml version="1.0" encoding="utf-8"?>
<!-- Generator: Adobe Illustrator 16.0.0, SVG Export Plug-In . SVG Version: 6.00 Build 0)  -->
<!DOCTYPE svg PUBLIC "-//W3C//DTD SVG 1.1//EN" "http://www.w3.org/Graphics/SVG/1.1/DTD/svg11.dtd">
<svg version="1.1" id="Layer_1" xmlns="http://www.w3.org/2000/svg" xmlns:xlink="http://www.w3.org/1999/xlink" x="0px" y="0px"
	 width="200px" height="200px" viewBox="0 0 200 200" enable-background="new 0 0 200 200" xml:space="preserve">
<g>
	<g>
		<path fill="#F5F5F5" d="M86.992,17.285v75.547l89.501,49.68V57.497L94.496,11.981L86.992,17.285z M97.961,20.674l73.271,39.816
			v58.218L97.961,78.892V20.674z"/>
		<path fill="#3C3C3C" d="M175.722,143.9L86.221,94.22l-0.818-1.389V17.285l0.673-1.298l7.504-5.305l1.689-0.091l81.996,45.517
			l0.817,1.389v85.015L175.722,143.9z M88.581,91.895l86.323,47.917v-81.38L94.599,13.855l-6.018,4.252V91.895z M170.474,120.105
			L97.203,80.29l-0.83-1.397V20.674l2.348-1.396l73.271,39.817l0.83,1.396v58.218L170.474,120.105z M99.551,77.948l70.093,38.089
			V61.436L99.551,23.347V77.948z"/>
	</g>
	<g>
		<g>
			<g>
				<g>
					<polygon fill="#F5F5F5" points="134.473,102.617 146.997,95.384 146.997,85.285 134.473,92.521 					"/>
					<path fill="#3C3C3C" d="M135.028,103.58l-1.669-0.963V92.521l0.556-0.965l12.525-7.234l1.669,0.963v10.1l-0.557,0.963
						L135.028,103.58z M135.585,93.164v7.526l10.3-5.948v-7.529L135.585,93.164z"/>
				</g>
				<g>
					<polygon fill="#F5F5F5" points="125.436,97.394 134.473,102.607 134.473,92.514 125.436,87.296 					"/>
					<path fill="#3C3C3C" d="M133.917,103.572l-9.037-5.215l-0.558-0.963V87.296l1.668-0.963l9.038,5.218l0.557,0.963v10.093
						L133.917,103.572z M126.548,96.751l6.812,3.931v-7.525l-6.812-3.934V96.751z"/>
				</g>
				<g>
					<line fill="#F5F5F5" x1="146.997" y1="85.291" x2="137.96" y2="80.074"/>
					
						<rect x="137.261" y="81.57" transform="matrix(0.866 0.5 -0.5 0.866 60.4371 -60.1663)" fill="#3C3C3C" width="10.437" height="2.224"/>
				</g>
				<g>
					<polygon fill="#F5F5F5" points="138.018,80.07 146.997,85.253 134.473,92.486 125.491,87.302 					"/>
					<path fill="#3C3C3C" d="M134.473,93.772l-11.207-6.47l14.752-8.516l11.205,6.467L134.473,93.772z M127.716,87.302l6.757,3.899
						l10.3-5.948l-6.755-3.898L127.716,87.302z"/>
				</g>
			</g>
			<g>
				<g>
					<polygon fill="#F5F5F5" points="51.115,53.857 63.646,46.621 63.646,36.528 51.115,43.76 					"/>
					<path fill="#3C3C3C" d="M51.671,54.821l-1.667-0.964V43.76l0.556-0.964l12.531-7.231l1.668,0.963v10.093l-0.557,0.964
						L51.671,54.821z M52.229,44.402v7.528l10.305-5.951v-7.525L52.229,44.402z"/>
				</g>
				<g>
					<polygon fill="#F5F5F5" points="44.963,50.241 51.115,53.853 51.115,43.754 44.963,40.142 					"/>
					<path fill="#3C3C3C" d="M50.552,54.812l-6.153-3.613l-0.549-0.958V40.142l1.676-0.959l6.153,3.613l0.55,0.958v10.099
						L50.552,54.812z M46.076,49.603l3.928,2.308v-7.519l-3.928-2.307V49.603z"/>
				</g>
			</g>
			<g>
				<g>
					<path fill="#F5F5F5" d="M20.251,54.931v85.018l76.102-43.94V10.992L20.251,54.931z M85.382,82.071l-59.87,34.074V57.926
						l59.87-34.073V82.071z"/>
					<path fill="#3C3C3C" d="M21.046,141.324l-2.384-1.375V54.931l0.795-1.376l76.102-43.94l2.383,1.377v85.018l-0.794,1.376
						L21.046,141.324z M21.84,55.848v81.347l72.924-42.103V13.745L21.84,55.848z M26.298,117.525l-2.375-1.381V57.926l0.804-1.382
						l59.869-34.072l2.375,1.381v58.218l-0.804,1.382L26.298,117.525z M27.101,58.849v54.563l56.692-32.264V26.585L27.101,58.849z"
						/>
				</g>
				<g>
					<g>
						<polygon fill="#F5F5F5" points="98.854,108.455 54.371,134.139 98.205,160.525 142.69,134.84 						"/>
						<path fill="#3C3C3C" d="M98.188,162.369l-46.946-28.258l47.631-27.502l46.945,28.258L98.188,162.369z M57.5,134.166
							l40.723,24.514l41.338-23.867l-40.723-24.512L57.5,134.166z"/>
					</g>
					<rect x="97.093" y="158.467" fill="#3C3C3C" width="2.226" height="4.479"/>
				</g>
				<g>
					<path fill="#F5F5F5" d="M103.656,104.064v85.02l76.102-45.523V60.126L103.656,104.064z M170.414,131.646l-56.264,33.637
						v-58.217l56.264-31.02V131.646z"/>
					<path fill="#3C3C3C" d="M104.472,190.449l-2.405-1.365v-85.02l0.795-1.377l76.103-43.938l2.384,1.377v83.434l-0.773,1.363
						L104.472,190.449z M105.245,104.982v81.299l72.924-43.623V62.879L105.245,104.982z M114.965,166.648l-2.404-1.365v-58.217
						l0.823-1.393l56.265-31.019l2.354,1.392v55.6l-0.773,1.365L114.965,166.648z M115.739,108.004v54.479l53.086-31.738V78.738
						L115.739,108.004z"/>
				</g>
				<rect x="95.23" y="17.287" fill="#3C3C3C" width="2.226" height="75.155"/>
				
					<rect x="57.18" y="-11.059" transform="matrix(0.5 0.866 -0.866 0.5 57.6231 -34.0433)" fill="#3C3C3C" width="2.225" height="87.875"/>
				
					<rect x="110.319" y="119.933" transform="matrix(0.8603 0.5098 -0.5098 0.8603 80.9519 -53.3084)" fill="#3C3C3C" width="54.839" height="2.225"/>
				<g>
					<path fill="#F5F5F5" d="M95.87,10.876L20.241,54.539l83.415,49.307l75.625-43.66L95.87,10.876z M104.049,91.525l-65.377-38.47
						l57.681-32.523l65.378,38.473L104.049,91.525z"/>
					<path fill="#3C3C3C" d="M104.45,105.223l-1.603-0.01L19.432,55.908l0.014-2.746L95.075,9.5l1.604,0.008l83.411,49.31
						l-0.014,2.743L104.45,105.223z M23.392,54.554l80.272,47.452l72.467-41.835l-80.27-47.454L23.392,54.554z M104.83,92.909
						l-1.587-0.015l-65.377-38.47l0.025-2.753l57.68-32.524l1.586,0.015l65.379,38.473l-0.025,2.754L104.83,92.909z M41.854,53.084
						l62.213,36.605l54.482-30.715L96.336,22.367L41.854,53.084z"/>
				</g>
				<g>
					<path fill="#F5F5F5" d="M20.241,54.804v85.018l83.415,49.309v-85.02L20.241,54.804z M95.133,167.906l-66.111-39.133v-57.55
						l66.111,39.289V167.906z"/>
					<path fill="#3C3C3C" d="M102.848,190.5l-83.416-49.309l-0.779-1.369V54.804l2.396-1.369l83.414,49.307l0.782,1.369v85.02
						L102.848,190.5z M21.83,138.916l80.236,47.43v-81.328L21.83,57.588V138.916z M94.323,169.275l-66.11-39.135l-0.78-1.367v-57.55
						l2.401-1.365l66.11,39.289l0.777,1.365v57.395L94.323,169.275z M30.611,127.867l62.933,37.252v-53.703L30.611,74.017V127.867z"
						/>
				</g>
			</g>
			<g>
				<line fill="#F5F5F5" x1="119.869" y1="83.038" x2="52.384" y2="42.946"/>
				<path fill="#3C3C3C" d="M119.867,85.421c-0.414,0-0.833-0.107-1.217-0.334L51.166,44.997c-1.132-0.674-1.505-2.136-0.832-3.268
					c0.674-1.132,2.133-1.503,3.268-0.833l67.485,40.091c1.132,0.675,1.503,2.136,0.832,3.267
					C121.472,85.005,120.68,85.421,119.867,85.421z"/>
			</g>
			<g>
				<line fill="#F5F5F5" x1="131.111" y1="76.509" x2="63.625" y2="36.418"/>
				<path fill="#3C3C3C" d="M131.11,78.892c-0.415,0-0.834-0.105-1.216-0.333L62.408,38.468c-1.133-0.674-1.506-2.136-0.833-3.268
					c0.673-1.134,2.135-1.503,3.267-0.832l67.486,40.091c1.133,0.673,1.505,2.134,0.834,3.267
					C132.715,78.476,131.923,78.892,131.11,78.892z"/>
			</g>
			<g>
				<g>
					<polygon fill="#F5F5F5" points="108.294,79.915 125.229,70.134 125.229,56.483 108.294,66.264 					"/>
					<path fill="#3C3C3C" d="M108.85,80.878l-1.668-0.964v-13.65l0.557-0.964l16.937-9.781l1.669,0.964v13.651l-0.558,0.963
						L108.85,80.878z M109.406,66.907v11.081l14.711-8.496V58.41L109.406,66.907z"/>
				</g>
				<g>
					<polygon fill="#F5F5F5" points="96.073,72.851 108.294,79.907 108.294,66.253 96.073,59.198 					"/>
					<path fill="#3C3C3C" d="M107.738,80.87l-12.221-7.055l-0.557-0.964V59.198l1.668-0.964l12.221,7.056l0.557,0.964v13.653
						L107.738,80.87z M97.186,72.208l9.996,5.771V66.896l-9.996-5.771V72.208z"/>
				</g>
				<g>
					<line fill="#F5F5F5" x1="125.229" y1="56.489" x2="113.011" y2="49.435"/>
					
						<rect x="112.066" y="51.849" transform="matrix(0.866 0.5 -0.5 0.866 42.4374 -52.4631)" fill="#3C3C3C" width="14.11" height="2.225"/>
				</g>
				<g>
					<polygon fill="#F5F5F5" points="113.086,49.43 125.229,56.44 108.294,66.219 96.149,59.209 					"/>
					<path fill="#3C3C3C" d="M107.738,67.183l-12.145-7.011v-1.927l16.937-9.779h1.111l12.145,7.011v1.928l-16.937,9.778H107.738z
						 M98.375,59.209l9.919,5.725l14.71-8.494l-9.918-5.726L98.375,59.209z"/>
				</g>
			</g>
		</g>
		<g>
			<path fill="#3C3C3C" d="M128.033,20.917c3.13,2.243,4.3,7.856,4.632,11.266l4.333,2.51c0.084-0.236,0.131-0.488,0.125-0.75
				c-0.002-0.488-0.197-11.999-6.545-16.56c-2.822-2.022-6.282-2.384-10.293-1.078c-7.074,2.305-11.179,10.253-12.196,23.625
				c-0.722,9.464,0.396,18.175,0.442,18.54c0.143,1.096,1.08,1.894,2.156,1.894c0.094,0,0.188-0.004,0.284-0.017
				c1.19-0.155,2.03-1.248,1.878-2.439c-1.205-9.232-1.969-33.959,8.785-37.466C124.285,19.58,126.384,19.732,128.033,20.917z"/>
			<path fill="#3C3C3C" d="M110.688,61.476c-1.646,0-3.047-1.231-3.26-2.864c-0.121-0.949-1.156-9.483-0.449-18.764
				c1.055-13.866,5.415-22.142,12.961-24.601c4.343-1.411,8.188-0.988,11.287,1.23c6.852,4.924,7.006,16.947,7.009,17.457
				c0.008,0.372-0.056,0.756-0.19,1.13l-0.447,1.259l-5.984-3.465l-0.054-0.569c-0.186-1.885-1.03-8.214-4.176-10.468
				c-1.355-0.978-3.103-1.072-5.404-0.321c-9.993,3.257-9.12,27.89-8.026,36.263c0.23,1.801-1.043,3.453-2.837,3.687
				C110.971,61.469,110.828,61.476,110.688,61.476z M124.741,16.651c-1.277,0-2.659,0.239-4.112,0.713
				c-6.605,2.151-10.451,9.772-11.431,22.651c-0.691,9.062,0.318,17.391,0.437,18.31c0.074,0.575,0.599,1.003,1.195,0.919
				c0.58-0.076,0.991-0.611,0.916-1.194c-0.043-0.338-4.293-34.155,9.545-38.666c3.001-0.976,5.463-0.754,7.39,0.631
				c3.557,2.548,4.683,8.505,5.03,11.489l2.246,1.3c-0.21-3.007-1.218-11.061-6.027-14.518
				C128.414,17.202,126.669,16.651,124.741,16.651z"/>
		</g>
	</g>
	<rect x="102" y="104" fill="#3C3C3C" width="2" height="80"/>
	
		<rect x="140.215" y="38.154" transform="matrix(0.4999 0.8661 -0.8661 0.4999 142.0199 -81.7605)" fill="#3C3C3C" width="3.179" height="87.876"/>
	
		<rect x="13.651" y="77.905" transform="matrix(0.8616 0.5076 -0.5076 0.8616 48.9355 -20.4944)" fill="#3C3C3C" width="96.801" height="3.179"/>
</g>
</svg>
